<svg 
 xmlns="http://www.w3.org/2000/svg"
 xmlns:xlink="http://www.w3.org/1999/xlink"
 width="60px" height="60px">
<path fill-rule="evenodd"  fill="rgb(52, 195, 255)"
 d="M0.0,0.0 L59.999,0.0 L59.999,59.999 L0.0,59.999 L0.0,0.0 Z"/>
<path fill-rule="evenodd"  fill="rgb(255, 255, 255)"
 d="M25.707,30.720 C25.707,31.423 25.49,31.833 24.96,31.833 C23.548,31.833 23.93,31.701 22.852,31.546 L23.66,30.775 C23.214,30.847 23.619,31.20 24.14,31.20 C24.370,31.20 24.622,30.914 24.622,30.653 C24.622,30.388 24.321,30.243 23.997,30.243 L23.537,30.243 L23.537,29.506 L23.981,29.506 C24.222,29.506 24.534,29.429 24.534,29.196 C24.534,29.25 24.359,28.908 24.25,28.908 C23.680,28.908 23.307,29.63 23.165,29.141 L22.946,28.398 C23.198,28.243 23.696,28.100 24.255,28.100 C25.77,28.100 25.586,28.487 25.586,29.25 C25.586,29.413 25.372,29.711 24.890,29.866 L24.890,29.877 C25.334,29.933 25.707,30.255 25.707,30.720 ZM27.684,31.833 C26.616,31.833 26.188,30.953 26.188,29.966 C26.188,28.985 26.616,28.100 27.689,28.100 C28.763,28.100 29.190,28.985 29.190,29.966 C29.190,30.953 28.763,31.833 27.689,31.833 L27.684,31.833 ZM28.161,29.966 C28.161,29.202 27.974,28.859 27.689,28.859 C27.405,28.859 27.218,29.202 27.218,29.966 C27.218,30.731 27.405,31.80 27.689,31.80 L27.695,31.80 C27.974,31.80 28.161,30.731 28.161,29.966 ZM31.973,31.811 C31.425,31.811 31.80,31.778 30.877,31.745 L30.877,28.83 C31.233,28.27 31.699,27.999 32.176,27.999 C32.954,27.999 33.430,28.116 33.836,28.376 C34.268,28.653 34.570,29.107 34.570,29.789 C34.570,30.565 34.252,31.36 33.890,31.313 C33.436,31.662 32.751,31.811 31.973,31.811 ZM32.274,28.792 C32.83,28.792 31.968,28.808 31.913,28.819 L31.913,30.997 C31.973,31.8 32.77,31.8 32.154,31.8 C32.910,31.20 33.463,30.659 33.463,29.845 C33.463,29.102 32.943,28.792 32.274,28.792 ZM36.136,29.667 C35.835,29.667 35.495,29.783 35.320,29.883 L35.139,29.230 C35.314,29.135 35.714,28.974 36.317,28.974 C37.243,28.974 37.637,29.446 37.637,30.177 L37.637,31.91 C37.637,31.379 37.654,31.645 37.681,31.767 L36.750,31.767 L36.695,31.535 L36.673,31.535 C36.476,31.756 36.191,31.833 35.884,31.833 C35.293,31.833 34.942,31.419 34.942,30.975 C34.942,30.243 35.588,29.906 36.607,29.906 L36.607,29.889 C36.607,29.789 36.542,29.667 36.136,29.667 ZM35.966,30.875 C35.966,31.30 36.70,31.119 36.262,31.119 C36.421,31.119 36.585,30.997 36.629,30.837 C36.640,30.792 36.640,30.737 36.640,30.686 L36.640,30.537 C36.185,30.537 35.966,30.653 35.966,30.875 ZM37.927,29.41 L39.83,29.41 L39.439,30.221 C39.483,30.377 39.538,30.598 39.576,30.731 L39.598,30.731 C39.637,30.587 39.680,30.365 39.713,30.221 L39.982,29.41 L41.110,29.41 L40.540,30.598 C40.42,31.977 39.746,32.371 39.450,32.615 C39.122,32.887 38.771,32.975 38.481,32.997 L38.289,32.122 C38.382,32.116 38.497,32.89 38.623,32.45 C38.760,31.999 38.908,31.879 38.974,31.801 C39.6,31.762 39.28,31.712 39.28,31.673 C39.28,31.640 39.23,31.596 38.985,31.512 L37.927,29.41 ZM41.691,24.719 L37.458,24.407 L37.564,22.940 L39.415,23.76 C37.361,20.794 34.450,19.470 31.358,19.470 C25.345,19.470 20.454,24.417 20.454,30.498 C20.454,36.580 25.345,41.527 31.358,41.527 C34.993,41.527 38.379,39.697 40.415,36.632 L41.622,37.452 C39.316,40.925 35.478,42.998 31.358,42.998 C24.543,42.998 18.999,37.391 18.999,30.498 C18.999,23.606 24.543,17.998 31.358,17.998 C34.831,17.998 38.104,19.472 40.428,22.15 L40.549,20.330 L41.999,20.437 L41.691,24.719 Z"/>
</svg>