<svg 
 xmlns="http://www.w3.org/2000/svg"
 xmlns:xlink="http://www.w3.org/1999/xlink"
 width="60px" height="60px">
<path fill-rule="evenodd"  fill="rgb(255, 181, 52)"
 d="M0.0,0.0 L59.999,0.0 L59.999,59.999 L0.0,59.999 L0.0,0.0 Z"/>
<path fill-rule="evenodd"  fill="rgb(255, 255, 255)"
 d="M36.10,35.161 C36.356,35.161 36.637,35.439 36.637,35.780 C36.637,36.123 36.356,36.399 36.10,36.399 L26.657,36.399 C26.311,36.399 26.31,36.123 26.31,35.780 C26.31,35.439 26.311,35.161 26.657,35.161 L36.10,35.161 ZM25.321,31.118 C25.161,31.118 25.0,31.58 24.878,30.937 L21.537,27.636 C21.293,27.394 21.293,27.2 21.537,26.761 C21.782,26.519 22.179,26.519 22.423,26.761 L25.321,29.624 L30.891,24.120 C31.135,23.879 31.532,23.879 31.777,24.120 C32.21,24.362 32.21,24.754 31.777,24.996 L25.764,30.937 C25.641,31.58 25.481,31.118 25.321,31.118 ZM49.372,39.40 L47.325,39.40 C47.325,39.54 47.326,39.68 47.326,39.82 C47.326,41.243 45.546,43.1 43.359,43.1 C41.172,43.1 39.392,41.243 39.392,39.82 C39.392,39.68 39.393,39.54 39.393,39.40 L25.278,39.40 C25.278,39.54 25.279,39.68 25.279,39.82 C25.279,41.243 23.499,43.1 21.312,43.1 C19.125,43.1 17.345,41.243 17.345,39.82 C17.345,39.68 17.346,39.54 17.346,39.40 L13.963,39.40 C13.249,39.40 12.669,38.466 12.669,37.761 L12.669,36.399 L10.623,36.399 C10.277,36.399 9.996,36.123 9.996,35.780 C9.996,35.439 10.277,35.161 10.623,35.161 L16.636,35.161 C16.981,35.161 17.262,35.439 17.262,35.780 C17.262,36.123 16.981,36.399 16.636,36.399 L13.921,36.399 L13.921,37.761 C13.921,37.784 13.940,37.802 13.963,37.802 L17.563,37.802 C18.101,36.268 19.578,35.161 21.312,35.161 C23.46,35.161 24.523,36.268 25.61,37.802 L38.56,37.802 L38.56,33.140 C38.56,32.798 38.337,32.521 38.683,32.521 C39.29,32.521 39.309,32.798 39.309,33.140 L39.309,37.802 L39.611,37.802 C40.148,36.268 41.625,35.162 43.359,35.162 C45.93,35.162 46.570,36.268 47.108,37.802 L48.746,37.802 L48.746,35.79 L48.36,35.79 C46.954,35.79 46.73,34.209 46.73,33.140 L46.73,31.819 C46.73,31.478 46.354,31.201 46.700,31.201 L48.647,31.201 C48.382,30.389 47.610,29.799 46.701,29.798 C46.700,29.798 46.700,29.798 46.699,29.798 C46.699,29.798 46.698,29.798 46.698,29.798 L39.309,29.798 L39.309,30.499 C39.309,30.842 39.29,31.119 38.683,31.119 C38.337,31.119 38.56,30.842 38.56,30.499 L38.56,19.277 C38.56,19.254 38.38,19.235 38.15,19.235 L13.963,19.235 C13.940,19.235 13.921,19.254 13.921,19.277 L13.921,30.499 C13.921,30.842 13.641,31.118 13.295,31.118 C12.949,31.118 12.669,30.842 12.669,30.499 L12.669,19.277 C12.669,18.572 13.249,17.997 13.963,17.997 L38.15,17.997 C38.728,17.997 39.309,18.572 39.309,19.277 L39.309,20.638 L44.27,20.638 C45.478,20.638 46.658,21.805 46.658,23.238 L46.658,23.898 C46.658,24.195 46.446,24.443 46.162,24.503 L47.198,28.597 C48.782,28.835 49.998,30.189 49.998,31.819 L49.998,38.422 C49.998,38.763 49.718,39.40 49.372,39.40 ZM21.312,36.399 C19.816,36.399 18.598,37.602 18.598,39.82 C18.598,40.561 19.816,41.763 21.312,41.763 C22.809,41.763 24.26,40.561 24.26,39.82 C24.26,37.602 22.809,36.399 21.312,36.399 ZM43.359,36.399 C41.863,36.399 40.645,37.602 40.645,39.82 C40.645,40.561 41.863,41.763 43.359,41.763 C44.856,41.763 46.73,40.561 46.73,39.82 C46.73,37.602 44.856,36.399 43.359,36.399 ZM45.405,23.238 C45.405,22.487 44.787,21.876 44.27,21.876 L39.309,21.876 L39.309,23.279 L45.405,23.279 L45.405,23.238 ZM44.875,24.517 L39.309,24.517 L39.309,28.561 L45.898,28.561 L44.875,24.517 ZM48.746,32.438 L47.326,32.438 L47.326,33.140 C47.326,33.527 47.645,33.842 48.36,33.842 L48.746,33.842 L48.746,32.438 ZM43.359,40.360 C42.646,40.360 42.65,39.787 42.65,39.82 C42.65,38.376 42.646,37.802 43.359,37.802 C44.73,37.802 44.654,38.376 44.654,39.82 C44.654,39.787 44.73,40.360 43.359,40.360 ZM21.312,40.360 C20.598,40.360 20.18,39.787 20.18,39.82 C20.18,38.376 20.598,37.802 21.312,37.802 C22.26,37.802 22.607,38.376 22.607,39.82 C22.607,39.787 22.26,40.360 21.312,40.360 ZM20.602,33.140 C20.602,33.482 20.322,33.759 19.976,33.759 L11.959,33.759 C11.613,33.759 11.333,33.482 11.333,33.140 C11.333,32.798 11.613,32.521 11.959,32.521 L19.976,32.521 C20.322,32.521 20.602,32.798 20.602,33.140 Z"/>
</svg>