<svg 
 width="16px" height="20px">
<path fill-rule="evenodd"  fill="rgb(254, 62, 87)"
 d="M15.998,17.293 L14.854,4.395 C14.829,4.108 14.588,3.892 14.306,3.892 L11.952,3.892 C11.920,1.740 10.162,0.1 8.5,0.1 C5.847,0.1 4.90,1.740 4.57,3.892 L1.703,3.892 C1.417,3.892 1.180,4.108 1.155,4.395 L0.11,17.293 C0.11,17.310 0.7,17.326 0.7,17.343 C0.7,18.812 1.351,20.6 3.6,20.6 L13.3,20.6 C14.658,20.6 16.2,18.812 16.2,17.343 C16.2,17.326 16.2,17.310 15.998,17.293 L15.998,17.293 ZM8.5,1.106 C9.553,1.106 10.816,2.350 10.849,3.892 L5.160,3.892 C5.193,2.350 6.456,1.106 8.5,1.106 L8.5,1.106 ZM13.3,18.902 L3.6,18.902 C1.968,18.902 1.127,18.214 1.110,17.368 L2.205,5.0 L4.53,5.0 L4.53,6.677 C4.53,6.984 4.298,7.230 4.604,7.230 C4.911,7.230 5.156,6.984 5.156,6.677 L5.156,5.0 L10.849,5.0 L10.849,6.677 C10.849,6.984 11.94,7.230 11.401,7.230 C11.707,7.230 11.952,6.984 11.952,6.677 L11.952,5.0 L13.800,5.0 L14.899,17.368 C14.882,18.214 14.37,18.902 13.3,18.902 L13.3,18.902 Z"/>
</svg>