<?xml version="1.0" encoding="UTF-8"?>
<svg xmlns="http://www.w3.org/2000/svg" xmlns:xlink="http://www.w3.org/1999/xlink" width="26px" height="26px" viewBox="0 0 26 26" version="1.1">
<g id="surface1">
<path style=" stroke:none;fill-rule:nonzero;fill:rgb(255%,255%,255%);fill-opacity:1;" d="M 19.5 17.371094 C 19.492188 17.328125 19.480469 17.289062 19.464844 17.25 C 19.449219 17.210938 19.429688 17.171875 19.40625 17.136719 C 19.382812 17.101562 19.355469 17.070312 19.324219 17.039062 C 19.175781 16.890625 18.957031 16.824219 18.746094 16.863281 C 18.707031 16.875 18.664062 16.886719 18.625 16.902344 C 18.585938 16.917969 18.550781 16.9375 18.515625 16.960938 C 18.480469 16.984375 18.445312 17.011719 18.417969 17.039062 C 18.386719 17.070312 18.359375 17.101562 18.339844 17.136719 C 18.316406 17.171875 18.296875 17.210938 18.277344 17.25 C 18.261719 17.289062 18.25 17.328125 18.242188 17.371094 C 18.234375 17.410156 18.230469 17.453125 18.230469 17.496094 C 18.230469 17.664062 18.296875 17.828125 18.417969 17.949219 C 18.535156 18.066406 18.703125 18.136719 18.871094 18.136719 C 19.039062 18.136719 19.207031 18.066406 19.324219 17.949219 C 19.445312 17.828125 19.515625 17.664062 19.515625 17.496094 C 19.515625 17.453125 19.511719 17.410156 19.5 17.371094 Z M 19.5 17.371094 "/>
<path style=" stroke:none;fill-rule:nonzero;fill:rgb(255%,255%,255%);fill-opacity:1;" d="M 25.730469 21.476562 C 25.34375 20.074219 24.515625 18.363281 23.335938 16.519531 C 23.710938 15.414062 23.917969 14.230469 23.917969 13 C 23.917969 6.980469 19.019531 2.082031 13 2.082031 C 12.914062 2.082031 12.828125 2.085938 12.742188 2.085938 C 12.703125 2.085938 12.667969 2.089844 12.628906 2.089844 C 12.585938 2.089844 12.539062 2.09375 12.492188 2.09375 C 12.441406 2.097656 12.390625 2.101562 12.339844 2.101562 C 12.3125 2.105469 12.28125 2.105469 12.25 2.109375 C 12.191406 2.113281 12.128906 2.117188 12.066406 2.125 C 12.054688 2.125 12.042969 2.125 12.03125 2.125 C 11.148438 2.203125 10.292969 2.386719 9.480469 2.664062 C 7.632812 1.484375 5.921875 0.65625 4.515625 0.265625 C 2.796875 -0.207031 1.527344 -0.046875 0.742188 0.738281 C -0.464844 1.945312 -0.195312 4.289062 1.515625 7.519531 C 1.851562 8.15625 2.238281 8.8125 2.664062 9.480469 C 2.289062 10.585938 2.082031 11.769531 2.082031 13 C 2.082031 17.921875 5.359375 22.09375 9.84375 23.449219 C 9.855469 23.453125 9.867188 23.460938 9.882812 23.464844 C 9.910156 23.472656 9.9375 23.480469 9.964844 23.488281 C 10.03125 23.507812 10.097656 23.523438 10.164062 23.542969 C 10.214844 23.554688 10.269531 23.570312 10.320312 23.582031 C 10.410156 23.605469 10.503906 23.628906 10.59375 23.648438 C 10.632812 23.65625 10.671875 23.664062 10.710938 23.671875 C 10.800781 23.691406 10.890625 23.710938 10.980469 23.726562 C 11.003906 23.734375 11.027344 23.738281 11.050781 23.742188 C 11.164062 23.761719 11.277344 23.78125 11.390625 23.796875 C 11.417969 23.800781 11.445312 23.804688 11.472656 23.808594 C 11.570312 23.824219 11.667969 23.835938 11.765625 23.847656 C 11.789062 23.847656 11.8125 23.851562 11.839844 23.855469 C 11.957031 23.867188 12.074219 23.878906 12.191406 23.886719 C 12.210938 23.886719 12.234375 23.890625 12.253906 23.890625 C 12.351562 23.898438 12.453125 23.902344 12.550781 23.90625 C 12.582031 23.90625 12.613281 23.910156 12.644531 23.910156 C 12.761719 23.914062 12.882812 23.917969 13 23.917969 C 13.085938 23.917969 13.167969 23.914062 13.253906 23.914062 C 13.277344 23.914062 13.300781 23.910156 13.324219 23.910156 C 13.390625 23.910156 13.457031 23.90625 13.523438 23.902344 C 13.542969 23.902344 13.5625 23.902344 13.582031 23.902344 C 13.757812 23.890625 13.933594 23.878906 14.109375 23.859375 C 14.113281 23.859375 14.117188 23.859375 14.125 23.859375 C 14.945312 23.773438 15.75 23.597656 16.523438 23.335938 C 17.191406 23.761719 17.84375 24.148438 18.480469 24.484375 C 20.382812 25.492188 21.980469 26 23.21875 26 C 24.078125 26 24.765625 25.753906 25.261719 25.257812 C 26.050781 24.472656 26.207031 23.199219 25.730469 21.476562 Z M 8.464844 4.503906 C 8.527344 4.46875 8.589844 4.4375 8.652344 4.40625 C 8.730469 4.367188 8.804688 4.328125 8.882812 4.292969 C 8.90625 4.28125 8.925781 4.273438 8.949219 4.261719 C 10.011719 3.769531 11.164062 3.472656 12.339844 3.390625 C 12.347656 3.390625 12.351562 3.390625 12.359375 3.390625 L 12.359375 7.945312 C 12.355469 7.953125 12.355469 7.960938 12.355469 7.96875 C 12.339844 8.203125 12.140625 8.386719 11.90625 8.386719 C 11.671875 8.386719 11.476562 8.203125 11.460938 7.96875 C 11.457031 7.960938 11.457031 7.953125 11.457031 7.945312 L 11.457031 6.925781 C 11.457031 5.96875 10.679688 5.191406 9.722656 5.191406 C 8.765625 5.191406 7.988281 5.96875 7.988281 6.925781 L 7.988281 9.109375 C 7.988281 9.359375 7.785156 9.5625 7.535156 9.5625 C 7.289062 9.5625 7.085938 9.359375 7.085938 9.109375 L 7.085938 5.402344 C 7.496094 5.082031 7.933594 4.792969 8.390625 4.542969 C 8.417969 4.53125 8.441406 4.515625 8.464844 4.503906 Z M 2.652344 6.917969 C 1.292969 4.351562 0.917969 2.378906 1.648438 1.648438 C 2.308594 0.988281 4.363281 1.070312 8.035156 3.277344 C 7.324219 3.640625 6.652344 4.082031 6.035156 4.59375 C 6.011719 4.613281 5.992188 4.632812 5.976562 4.652344 C 4.867188 5.585938 3.945312 6.734375 3.28125 8.035156 C 3.054688 7.65625 2.84375 7.285156 2.652344 6.917969 Z M 9.421875 21.941406 C 5.878906 20.519531 3.367188 17.046875 3.367188 13 C 3.367188 12.269531 3.449219 11.554688 3.605469 10.871094 C 5.058594 12.914062 6.867188 15.042969 8.914062 17.085938 C 9.082031 17.253906 9.253906 17.421875 9.421875 17.589844 Z M 14.957031 22.433594 C 14.9375 22.4375 14.914062 22.441406 14.890625 22.445312 C 14.789062 22.464844 14.683594 22.484375 14.582031 22.5 C 14.535156 22.507812 14.492188 22.515625 14.445312 22.523438 C 14.398438 22.53125 14.347656 22.539062 14.300781 22.542969 C 14.242188 22.550781 14.183594 22.558594 14.128906 22.566406 C 14.085938 22.570312 14.046875 22.574219 14.007812 22.578125 C 13.910156 22.589844 13.816406 22.597656 13.722656 22.605469 C 13.695312 22.605469 13.664062 22.609375 13.636719 22.609375 C 13.558594 22.617188 13.480469 22.621094 13.402344 22.625 C 13.371094 22.625 13.339844 22.625 13.3125 22.625 C 13.207031 22.628906 13.105469 22.632812 13 22.632812 C 12.910156 22.632812 12.820312 22.628906 12.726562 22.628906 C 12.699219 22.628906 12.671875 22.625 12.644531 22.625 C 12.582031 22.621094 12.519531 22.621094 12.457031 22.617188 C 12.421875 22.613281 12.390625 22.613281 12.359375 22.609375 C 12.300781 22.605469 12.242188 22.601562 12.183594 22.597656 C 12.148438 22.59375 12.117188 22.589844 12.082031 22.589844 C 12.023438 22.582031 11.964844 22.578125 11.90625 22.570312 C 11.875 22.566406 11.84375 22.5625 11.8125 22.558594 C 11.75 22.550781 11.683594 22.542969 11.621094 22.53125 C 11.59375 22.527344 11.570312 22.527344 11.542969 22.523438 C 11.460938 22.507812 11.375 22.496094 11.289062 22.480469 C 11.25 22.472656 11.210938 22.464844 11.175781 22.457031 C 11.128906 22.449219 11.082031 22.441406 11.035156 22.429688 C 10.988281 22.421875 10.9375 22.410156 10.890625 22.398438 C 10.855469 22.390625 10.820312 22.382812 10.789062 22.375 C 10.761719 22.367188 10.734375 22.363281 10.707031 22.355469 L 10.707031 18.800781 C 12.183594 20.148438 13.675781 21.363281 15.128906 22.394531 C 15.074219 22.40625 15.015625 22.421875 14.957031 22.433594 Z M 12.617188 18.78125 C 11.976562 18.230469 11.339844 17.648438 10.707031 17.042969 L 10.707031 16.386719 C 10.707031 16.375 10.710938 16.359375 10.710938 16.347656 C 10.742188 15.921875 11.101562 15.585938 11.53125 15.585938 C 11.960938 15.585938 12.324219 15.921875 12.355469 16.347656 C 12.355469 16.359375 12.355469 16.375 12.359375 16.386719 L 12.359375 17.769531 C 12.359375 18.136719 12.453125 18.480469 12.617188 18.78125 Z M 13.796875 19.769531 C 14.007812 19.839844 14.234375 19.878906 14.46875 19.878906 C 15.632812 19.878906 16.578125 18.933594 16.578125 17.769531 L 16.578125 14.835938 C 16.578125 14.378906 16.949219 14.007812 17.402344 14.007812 C 17.859375 14.007812 18.230469 14.378906 18.230469 14.835938 L 18.230469 15.570312 C 18.230469 15.921875 18.515625 16.210938 18.871094 16.210938 C 19.226562 16.210938 19.511719 15.921875 19.511719 15.570312 L 19.511719 14.835938 C 19.511719 13.671875 18.566406 12.722656 17.402344 12.722656 C 16.242188 12.722656 15.292969 13.671875 15.292969 14.835938 L 15.292969 17.769531 C 15.292969 18.226562 14.921875 18.59375 14.46875 18.59375 C 14.011719 18.59375 13.640625 18.226562 13.640625 17.769531 L 13.640625 16.300781 C 13.640625 16.253906 13.636719 16.203125 13.625 16.15625 C 13.5 15.109375 12.597656 14.300781 11.53125 14.300781 C 10.570312 14.300781 9.746094 14.957031 9.5 15.851562 C 7.367188 13.683594 5.515625 11.441406 4.097656 9.324219 C 4.511719 8.320312 5.09375 7.40625 5.800781 6.605469 L 5.800781 9.109375 C 5.800781 10.066406 6.582031 10.84375 7.535156 10.84375 C 8.492188 10.84375 9.273438 10.066406 9.273438 9.109375 L 9.273438 6.925781 C 9.273438 6.675781 9.472656 6.472656 9.722656 6.472656 C 9.96875 6.472656 10.171875 6.675781 10.171875 6.925781 L 10.171875 8.015625 C 10.171875 8.0625 10.179688 8.109375 10.1875 8.152344 C 10.292969 9.011719 11.035156 9.671875 11.90625 9.671875 C 12.78125 9.671875 13.519531 9.011719 13.628906 8.15625 C 13.636719 8.109375 13.640625 8.066406 13.640625 8.015625 L 13.640625 3.390625 C 18.65625 3.722656 22.632812 7.902344 22.632812 13 C 22.632812 14.140625 22.433594 15.234375 22.066406 16.25 C 22.023438 16.324219 21.996094 16.402344 21.980469 16.484375 C 21.441406 17.867188 20.589844 19.101562 19.511719 20.089844 L 19.511719 19.421875 C 19.511719 19.066406 19.226562 18.777344 18.871094 18.777344 C 18.515625 18.777344 18.230469 19.066406 18.230469 19.421875 L 18.230469 21.085938 C 17.742188 21.402344 17.222656 21.675781 16.675781 21.902344 C 15.738281 21.273438 14.769531 20.558594 13.796875 19.769531 Z M 24.351562 24.351562 C 23.621094 25.082031 21.648438 24.707031 19.082031 23.347656 C 18.714844 23.15625 18.347656 22.945312 17.96875 22.722656 C 18.40625 22.496094 18.832031 22.242188 19.238281 21.957031 C 19.257812 21.945312 19.277344 21.929688 19.296875 21.914062 C 20.730469 20.894531 21.914062 19.542969 22.722656 17.964844 C 24.929688 21.636719 25.011719 23.691406 24.351562 24.351562 Z M 24.351562 24.351562 "/>
</g>
</svg>
