<?xml version="1.0" encoding="UTF-8"?>
<svg xmlns="http://www.w3.org/2000/svg" xmlns:xlink="http://www.w3.org/1999/xlink" width="26px" height="26px" viewBox="0 0 26 26" version="1.1">
<g id="surface1">
<path style=" stroke:none;fill-rule:nonzero;fill:rgb(255%,255%,255%);fill-opacity:1;" d="M 23.886719 19.417969 C 23.644531 18.117188 22.914062 16.980469 21.9375 16.167969 L 20.394531 14.867188 C 20.070312 14.625 19.742188 14.300781 19.5 13.976562 L 19.5 17.0625 C 19.5 17.550781 19.175781 17.875 18.6875 17.875 C 18.199219 17.875 17.875 17.550781 17.875 17.0625 L 17.875 8.9375 C 17.875 4.875 15.761719 1.625 13 1.625 C 10.238281 1.625 8.125 4.875 8.125 8.9375 L 8.125 17.0625 C 8.125 17.550781 7.800781 17.875 7.3125 17.875 C 6.824219 17.875 6.5 17.550781 6.5 17.0625 L 6.5 13.976562 C 6.257812 14.300781 5.929688 14.625 5.605469 14.867188 L 4.0625 16.167969 C 3.085938 16.980469 2.355469 18.117188 2.113281 19.417969 L 1.625 21.773438 C 1.542969 22.019531 1.625 22.261719 1.789062 22.425781 C 1.949219 22.667969 2.195312 22.75 2.4375 22.75 L 8.125 22.75 L 8.125 23.5625 C 8.125 24.050781 8.449219 24.375 8.9375 24.375 L 12.1875 24.375 L 12.1875 17.0625 C 12.1875 16.574219 12.511719 16.25 13 16.25 C 13.488281 16.25 13.8125 16.574219 13.8125 17.0625 L 13.8125 24.375 L 17.0625 24.375 C 17.550781 24.375 17.875 24.050781 17.875 23.5625 L 17.875 22.75 L 23.5625 22.75 C 23.804688 22.75 24.050781 22.667969 24.210938 22.425781 C 24.375 22.261719 24.457031 22.019531 24.375 21.773438 Z M 14.625 8.9375 C 14.136719 8.9375 13.8125 8.613281 13.8125 8.125 C 13.8125 7.636719 13.488281 7.3125 13 7.3125 C 12.511719 7.3125 12.1875 7.636719 12.1875 8.125 C 12.1875 8.613281 11.863281 8.9375 11.375 8.9375 C 10.886719 8.9375 10.5625 8.613281 10.5625 8.125 C 10.5625 6.742188 11.617188 5.6875 13 5.6875 C 14.382812 5.6875 15.4375 6.742188 15.4375 8.125 C 15.4375 8.613281 15.113281 8.9375 14.625 8.9375 Z M 14.625 8.9375 "/>
</g>
</svg>
