<?xml version="1.0" encoding="UTF-8"?>
<svg xmlns="http://www.w3.org/2000/svg" xmlns:xlink="http://www.w3.org/1999/xlink" width="16px" height="16px" viewBox="0 0 16 16" version="1.1">
<g id="surface1">
<path style=" stroke:none;fill-rule:evenodd;fill:rgb(99.607843%,24.313725%,34.117647%);fill-opacity:1;" d="M 14.160156 10.339844 C 12.785156 9.46875 11.746094 9.054688 10.617188 8.433594 C 11.828125 7.601562 12.625 6.203125 12.625 4.625 C 12.625 2.074219 10.550781 0.078125 8 0.078125 C 5.449219 0.078125 3.375 2.074219 3.375 4.625 C 3.375 6.203125 4.171875 7.601562 5.382812 8.433594 C 4.25 9.054688 3.335938 9.46875 2.34375 10.339844 C 1.121094 11.851562 0 13.863281 0 16 L 1.25 16 C 1.25 12.277344 4.277344 9.25 8 9.25 C 11.722656 9.25 14.75 12.277344 14.75 16 L 16 16 C 16 13.863281 15.167969 11.851562 14.160156 10.339844 Z M 4.625 4.625 C 4.625 2.761719 6.136719 1.25 8 1.25 C 9.859375 1.25 11.375 2.761719 11.375 4.625 C 11.375 6.484375 9.859375 8 8 8 C 6.136719 8 4.625 6.484375 4.625 4.625 Z M 4.625 4.625 "/>
</g>
</svg>
