<svg xmlns="http://www.w3.org/2000/svg" width="74" height="74" viewBox="0 0 74 74">
  <g id="Сгруппировать_1" data-name="Сгруппировать 1" transform="translate(-696 -1017)">
    <g id="Ellipse_527_copy_13" data-name="Ellipse 527 copy 13">
      <g id="Ellipse_527_copy_13-2" data-name="Ellipse 527 copy 13" transform="translate(698 1019)" fill="#fff" stroke="#fff" stroke-width="1">
        <circle cx="35" cy="35" r="35" stroke="none"/>
        <circle cx="35" cy="35" r="34.5" fill="none"/>
      </g>
      <g id="Stroke_Effect" data-name="Stroke Effect" fill="none" stroke-linejoin="round">
        <path d="M733,1019a35,35,0,1,1-35,35A35,35,0,0,1,733,1019Z" stroke="none"/>
        <path d="M 733 1019 C 713.6700439453125 1019 698 1034.670043945313 698 1054 C 698 1073.329956054688 713.6700439453125 1089 733 1089 C 752.3299560546875 1089 768 1073.329956054688 768 1054 C 768 1034.670043945313 752.3299560546875 1019 733 1019 M 733 1017 C 737.9940795898438 1017 742.83984375 1017.978515625 747.4026489257813 1019.908447265625 C 751.808837890625 1021.772094726563 755.7655639648438 1024.439697265625 759.1629638671875 1027.837036132813 C 762.560302734375 1031.234375 765.2279052734375 1035.191162109375 767.091552734375 1039.597290039063 C 769.021484375 1044.16015625 770 1049.005859375 770 1054 C 770 1058.994140625 769.021484375 1063.83984375 767.091552734375 1068.402709960938 C 765.2279052734375 1072.808837890625 762.560302734375 1076.765625 759.1629638671875 1080.162963867188 C 755.7655639648438 1083.560302734375 751.808837890625 1086.227905273438 747.4026489257813 1088.091552734375 C 742.83984375 1090.021484375 737.9940795898438 1091 733 1091 C 728.0059204101563 1091 723.16015625 1090.021484375 718.5973510742188 1088.091552734375 C 714.191162109375 1086.227905273438 710.2344360351563 1083.560302734375 706.8370361328125 1080.162963867188 C 703.439697265625 1076.765625 700.7720947265625 1072.808837890625 698.908447265625 1068.402709960938 C 696.978515625 1063.83984375 696 1058.994140625 696 1054 C 696 1049.005859375 696.978515625 1044.16015625 698.908447265625 1039.597290039063 C 700.7720947265625 1035.191162109375 703.439697265625 1031.234375 706.8370361328125 1027.837036132813 C 710.2344360351563 1024.439697265625 714.191162109375 1021.772094726563 718.5973510742188 1019.908447265625 C 723.16015625 1017.978515625 728.0059204101563 1017 733 1017 Z" stroke="none" fill="#f56856"/>
      </g>
    </g>
    <g id="Shape_1_copy_4" data-name="Shape 1 copy 4" fill="#f56856">
      <path d="M 720.5321044921875 1078.89697265625 C 720.4891357421875 1078.89697265625 720.4500732421875 1078.886108398438 720.4159545898438 1078.864501953125 C 720.3114624023438 1078.799682617188 720.2703247070313 1078.665771484375 720.3175048828125 1078.551391601563 L 728.5501098632813 1058.68212890625 L 728.8366088867188 1057.99072265625 L 728.0881958007813 1057.99072265625 L 720.5330200195313 1057.99072265625 C 720.452880859375 1057.99072265625 720.3786010742188 1057.947509765625 720.3342895507813 1057.875 C 720.2901611328125 1057.80224609375 720.2857055664063 1057.70849609375 720.3236083984375 1057.6318359375 L 731.3451538085938 1035.230346679688 C 731.3848876953125 1035.150146484375 731.4672241210938 1035.097412109375 731.5540771484375 1035.097412109375 L 743.309814453125 1035.097412109375 C 743.3941040039063 1035.097412109375 743.4722290039063 1035.145141601563 743.5137329101563 1035.221923828125 C 743.5576782226563 1035.302978515625 743.5546875 1035.401245117188 743.5062866210938 1035.47900390625 L 734.9136962890625 1049.266723632813 L 734.437255859375 1050.031127929688 L 735.3380126953125 1050.031127929688 L 744.0444946289063 1050.031127929688 C 744.1338500976563 1050.031127929688 744.216796875 1050.086059570313 744.2557373046875 1050.1708984375 C 744.29638671875 1050.259765625 744.2833862304688 1050.365112304688 744.222412109375 1050.4384765625 L 720.7099609375 1078.813598632813 C 720.6661376953125 1078.865966796875 720.600830078125 1078.89697265625 720.5321044921875 1078.89697265625 Z" stroke="none"/>
      <path d="M 731.7218017578125 1035.597412109375 L 720.9502563476563 1057.49072265625 L 728.0881958007813 1057.49072265625 L 729.5849609375 1057.49072265625 L 729.0120239257813 1058.87353515625 L 721.439697265625 1077.149291992188 L 743.4962768554688 1050.531127929688 L 735.3380126953125 1050.531127929688 L 733.5364990234375 1050.531127929688 L 734.4893188476563 1049.002197265625 L 742.8433227539063 1035.597412109375 L 731.7218017578125 1035.597412109375 M 731.5540771484375 1034.597412109375 L 743.309814453125 1034.597412109375 C 743.5772705078125 1034.597412109375 743.82421875 1034.744750976563 743.95361328125 1034.984252929688 C 744.0825805664063 1035.22216796875 744.0739135742188 1035.513305664063 743.9307250976563 1035.743286132813 L 735.3380126953125 1049.531127929688 L 744.0444946289063 1049.531127929688 C 744.3303833007813 1049.531127929688 744.5897827148438 1049.699951171875 744.710205078125 1049.96240234375 C 744.8306274414063 1050.225952148438 744.7910766601563 1050.53662109375 744.6068115234375 1050.758178710938 L 721.094970703125 1079.132568359375 C 720.9511108398438 1079.3046875 720.7431030273438 1079.39697265625 720.5321044921875 1079.39697265625 C 720.4005126953125 1079.39697265625 720.2683715820313 1079.362548828125 720.1494140625 1079.28759765625 C 719.8399047851563 1079.095336914063 719.7150268554688 1078.70068359375 719.8552856445313 1078.360717773438 L 728.0881958007813 1058.49072265625 L 720.5330200195313 1058.49072265625 C 720.2778930664063 1058.49072265625 720.0422973632813 1058.35595703125 719.90771484375 1058.135864257813 C 719.77392578125 1057.915405273438 719.761474609375 1057.640869140625 719.8753051757813 1057.410400390625 L 730.896484375 1035.009643554688 C 731.0213012695313 1034.758056640625 731.2755737304688 1034.597412109375 731.5540771484375 1034.597412109375 Z" stroke="none" fill="#fff"/>
    </g>
  </g>
</svg>
