<svg xmlns="http://www.w3.org/2000/svg" width="74" height="74" viewBox="0 0 74 74">
  <g id="Сгруппировать_1" data-name="Сгруппировать 1" transform="translate(-696 -1368.999)">
    <ellipse id="Ellipse_521" data-name="Ellipse 521" cx="22" cy="31" rx="22" ry="31" transform="translate(709 1377)" fill="#f56856"/>
    <g id="Forma_1_copy_3" data-name="Forma 1 copy 3">
      <g id="Forma_1_copy_3-2" data-name="Forma 1 copy 3" fill="#fff">
        <path d="M 732.9996948242188 1440.49853515625 C 728.3424072265625 1440.49853515625 723.8245849609375 1439.58642578125 719.5716552734375 1437.787475585938 C 715.4635620117188 1436.0498046875 711.7738647460938 1433.562133789063 708.605224609375 1430.3935546875 C 705.4364624023438 1427.224853515625 702.9486694335938 1423.53515625 701.2109375 1419.427001953125 C 699.411865234375 1415.173828125 698.4996948242188 1410.655639648438 698.4996948242188 1405.997924804688 C 698.4996948242188 1401.340087890625 699.411865234375 1396.822021484375 701.2109375 1392.568969726563 C 702.9486694335938 1388.460815429688 705.4364624023438 1384.771362304688 708.6051635742188 1381.602905273438 C 711.7738647460938 1378.434448242188 715.4635009765625 1375.946899414063 719.5716552734375 1374.20947265625 C 723.8245849609375 1372.41064453125 728.3424072265625 1371.498657226563 732.9996948242188 1371.498657226563 C 737.6574096679688 1371.498657226563 742.175537109375 1372.41064453125 746.4285278320313 1374.20947265625 C 750.5367431640625 1375.946899414063 754.2263793945313 1378.434448242188 757.3948974609375 1381.602905273438 C 760.5634765625 1384.771240234375 763.0511474609375 1388.460815429688 764.7886962890625 1392.568969726563 C 766.5875854492188 1396.821899414063 767.4996948242188 1401.340087890625 767.4996948242188 1405.997924804688 C 767.4996948242188 1410.65576171875 766.5875854492188 1415.173950195313 764.7886962890625 1419.427001953125 C 763.0510864257813 1423.535278320313 760.5634765625 1427.224975585938 757.3948974609375 1430.3935546875 C 754.226318359375 1433.562133789063 750.5366821289063 1436.049926757813 746.4285278320313 1437.787475585938 C 742.1754760742188 1439.58642578125 737.6574096679688 1440.49853515625 732.9996948242188 1440.49853515625 Z M 729.9522094726563 1393.307495117188 C 729.0546264648438 1393.307495117188 728.2279663085938 1393.489868164063 727.4952392578125 1393.849487304688 C 725.0239868164063 1395.0634765625 723.353515625 1397.078369140625 722.7914428710938 1399.523315429688 C 722.2294311523438 1401.968017578125 722.8301391601563 1404.5537109375 724.4395141601563 1406.61767578125 C 724.6640625 1406.905639648438 724.8894653320313 1407.191650390625 725.113037109375 1407.475341796875 C 726.4058837890625 1409.115600585938 727.626953125 1410.664916992188 728.2763671875 1412.091796875 C 728.9571533203125 1413.58740234375 728.9140014648438 1414.702758789063 728.136474609375 1415.708251953125 C 724.9116821289063 1419.8896484375 724.5545043945313 1422.677856445313 724.8226318359375 1424.28076171875 C 725.0811767578125 1425.826293945313 725.931396484375 1426.591552734375 726.4152221679688 1426.91015625 C 726.80224609375 1427.166015625 727.6115112304688 1427.596069335938 728.6742553710938 1427.596069335938 C 729.6744384765625 1427.596069335938 731.1614379882813 1427.202758789063 732.5657348632813 1425.3291015625 C 733.933349609375 1423.50439453125 734.9822387695313 1420.601196289063 735.683349609375 1416.700439453125 C 736.0581665039063 1414.620849609375 736.9649658203125 1412.539672851563 737.8419799804688 1410.526977539063 C 739.41650390625 1406.913452148438 740.9037475585938 1403.500244140625 739.4364013671875 1400.224487304688 C 737.6685180664063 1396.281005859375 733.5912475585938 1393.307495117188 729.9522094726563 1393.307495117188 Z M 741.8081665039063 1396.948364257813 C 741.3729248046875 1396.948364257813 740.9644775390625 1397.11865234375 740.6581420898438 1397.427856445313 L 740.6561279296875 1397.429931640625 L 740.6541137695313 1397.431884765625 C 740.155517578125 1397.94677734375 739.8675537109375 1399.557373046875 739.7911376953125 1400.038696289063 L 739.6802978515625 1400.737426757813 L 740.3759765625 1400.608764648438 C 740.855712890625 1400.519897460938 742.4595336914063 1400.190673828125 742.9557495117188 1399.680786132813 C 743.2578125 1399.371948242188 743.4216918945313 1398.963745117188 743.4161987304688 1398.532104492188 C 743.4107666015625 1398.103271484375 743.2381591796875 1397.702270507813 742.93017578125 1397.403076171875 C 742.627197265625 1397.109619140625 742.2289428710938 1396.948364257813 741.8081665039063 1396.948364257813 Z M 740.5938110351563 1392.910888671875 C 739.9205932617188 1392.910888671875 739.308837890625 1393.250244140625 738.9573364257813 1393.818725585938 C 738.4918212890625 1394.562866210938 738.579833984375 1396.625854492188 738.6179809570313 1397.240356445313 L 738.6616821289063 1397.9453125 L 739.3120727539063 1397.669799804688 C 739.8779296875 1397.430053710938 741.7601928710938 1396.589721679688 742.221923828125 1395.842407226563 C 742.7793579101563 1394.946655273438 742.5010375976563 1393.759521484375 741.6005859375 1393.197387695313 C 741.2972412109375 1393.009643554688 740.9495849609375 1392.910888671875 740.5938110351563 1392.910888671875 Z M 736.0147705078125 1390.734985351563 C 735.6224365234375 1391.804565429688 735.7660522460938 1394.056030273438 735.8018798828125 1394.531860351563 L 735.8551025390625 1395.23779296875 L 736.5026245117188 1394.951538085938 C 736.9795532226563 1394.74072265625 739.3859252929688 1393.643676757813 739.9244384765625 1392.746337890625 C 740.228271484375 1392.2392578125 740.3161010742188 1391.644653320313 740.171875 1391.071655273438 C 740.0278930664063 1390.499877929688 739.6699829101563 1390.018798828125 739.1639404296875 1389.717163085938 C 738.8228149414063 1389.511352539063 738.4299926757813 1389.40185546875 738.0301513671875 1389.40185546875 C 737.4492797851563 1389.40185546875 736.8946533203125 1389.63427734375 736.4869995117188 1390.03076171875 C 736.55322265625 1389.903442382813 736.6033325195313 1389.781860351563 736.6334838867188 1389.668334960938 C 736.8008422851563 1389.038208007813 736.7136840820313 1388.382446289063 736.3878784179688 1387.82177734375 C 736.0651245117188 1387.266357421875 735.5453491210938 1386.869995117188 734.92431640625 1386.705932617188 C 734.7213745117188 1386.651611328125 734.5111694335938 1386.623901367188 734.3009033203125 1386.623901367188 C 733.20849609375 1386.623901367188 732.2471923828125 1387.3603515625 731.9631958007813 1388.414916992188 C 731.6607666015625 1389.532958984375 732.653076171875 1392.312377929688 732.8550415039063 1392.858276367188 L 733.1001586914063 1393.520629882813 L 733.6434326171875 1393.0693359375 C 733.9663696289063 1392.801147460938 735.2271118164063 1391.730834960938 736.0147705078125 1390.734985351563 Z M 728.7894897460938 1384.573486328125 C 727.34619140625 1384.573486328125 726.0802001953125 1385.548583984375 725.7108154296875 1386.944580078125 C 725.2931518554688 1388.485961914063 726.7813720703125 1392.5986328125 726.9524536132813 1393.0625 L 727.1972045898438 1393.726196289063 L 727.7412109375 1393.274047851563 C 728.12158203125 1392.957885742188 731.4692993164063 1390.14013671875 731.88134765625 1388.5947265625 C 732.1026000976563 1387.768676757813 731.988525390625 1386.906005859375 731.5599365234375 1386.166015625 C 731.1324462890625 1385.428100585938 730.4435424804688 1384.901489257813 729.6200561523438 1384.683349609375 C 729.3491821289063 1384.610595703125 729.0692138671875 1384.573486328125 728.7894897460938 1384.573486328125 Z" stroke="none"/>
        <path d="M 732.9996948242188 1371.998657226563 C 728.40966796875 1371.998657226563 723.9573364257813 1372.8974609375 719.7664184570313 1374.669921875 C 715.7178344726563 1376.382202148438 712.0816040039063 1378.833740234375 708.958740234375 1381.956420898438 C 705.8357543945313 1385.079223632813 703.3839111328125 1388.715209960938 701.6714477539063 1392.763793945313 C 699.8986206054688 1396.954833984375 698.9996948242188 1401.407470703125 698.9996948242188 1405.997924804688 C 698.9996948242188 1410.58837890625 699.8986206054688 1415.041015625 701.6714477539063 1419.232177734375 C 703.3839721679688 1423.28076171875 705.8357543945313 1426.917114257813 708.958740234375 1430.039916992188 C 712.0816650390625 1433.162841796875 715.7178955078125 1435.614624023438 719.7664794921875 1437.327026367188 C 723.9573974609375 1439.099731445313 728.4097290039063 1439.99853515625 732.9996948242188 1439.99853515625 C 737.5901489257813 1439.99853515625 742.042724609375 1439.099731445313 746.2337036132813 1437.327026367188 C 750.2822875976563 1435.614624023438 753.9185180664063 1433.162841796875 757.0413208007813 1430.0400390625 C 760.1641845703125 1426.917114257813 762.6158447265625 1423.280883789063 764.3282470703125 1419.232177734375 C 766.1008911132813 1415.041015625 766.9996948242188 1410.58837890625 766.9996948242188 1405.997924804688 C 766.9996948242188 1401.407348632813 766.1008911132813 1396.954711914063 764.3282470703125 1392.763671875 C 762.6158447265625 1388.715209960938 760.1641845703125 1385.0791015625 757.0413818359375 1381.956420898438 C 753.9185791015625 1378.833740234375 750.2823486328125 1376.382202148438 746.2337646484375 1374.669921875 C 742.042724609375 1372.8974609375 737.5901489257813 1371.998657226563 732.9996948242188 1371.998657226563 M 732.3760375976563 1386.849243164063 C 732.8960571289063 1386.393798828125 733.5744018554688 1386.123901367188 734.3008422851563 1386.123901367188 C 734.5548095703125 1386.123901367188 734.8085327148438 1386.157348632813 735.0520629882813 1386.222534179688 C 735.8023681640625 1386.420776367188 736.4302978515625 1386.899536132813 736.8202514648438 1387.570556640625 C 737.0814208984375 1388.020141601563 737.2155151367188 1388.520263671875 737.216796875 1389.028076171875 C 737.47705078125 1388.945556640625 737.7511596679688 1388.90185546875 738.0301513671875 1388.90185546875 C 738.5194702148438 1388.90185546875 739.0001220703125 1389.035278320313 739.42041015625 1389.287963867188 C 740.0411376953125 1389.658203125 740.4801635742188 1390.248291015625 740.65673828125 1390.949584960938 C 740.7799072265625 1391.438842773438 740.7650756835938 1391.941040039063 740.618896484375 1392.411010742188 C 741.05908203125 1392.41552734375 741.488525390625 1392.539916992188 741.8653564453125 1392.773315429688 C 742.9993896484375 1393.481079101563 743.349365234375 1394.97705078125 742.6472778320313 1396.105224609375 C 742.576904296875 1396.21923828125 742.4788818359375 1396.351806640625 742.3146362304688 1396.509399414063 C 742.6741333007813 1396.597778320313 743.0057373046875 1396.780151367188 743.2786254882813 1397.04443359375 C 743.6826171875 1397.436889648438 743.9090576171875 1397.963012695313 743.9161987304688 1398.525756835938 C 743.92333984375 1399.091186523438 743.7089233398438 1399.625854492188 743.3140869140625 1400.029418945313 C 743.1017456054688 1400.247680664063 742.70849609375 1400.53857421875 741.54296875 1400.853271484375 C 740.9852294921875 1401.00390625 740.4878540039063 1401.096557617188 740.4669189453125 1401.100341796875 L 740.285888671875 1401.133911132813 C 741.111083984375 1404.276489257813 739.6846313476563 1407.5498046875 738.3003540039063 1410.726684570313 C 737.434814453125 1412.713012695313 736.5398559570313 1414.766967773438 736.1754760742188 1416.788818359375 C 735.46044921875 1420.76708984375 734.380615234375 1423.741333007813 732.9658203125 1425.629028320313 C 731.4375 1427.668090820313 729.7885131835938 1428.096069335938 728.6742553710938 1428.096069335938 C 727.7896728515625 1428.096069335938 726.8892211914063 1427.822875976563 726.1401977539063 1427.327758789063 C 724.8546142578125 1426.481079101563 724.4539184570313 1425.10693359375 724.3294677734375 1424.363159179688 C 724.044921875 1422.662231445313 724.4056396484375 1419.72705078125 727.7409057617188 1415.402465820313 C 728.399658203125 1414.550537109375 728.4237060546875 1413.622436523438 727.8212890625 1412.298950195313 C 727.1968383789063 1410.927001953125 725.9939575195313 1409.400756835938 724.7203369140625 1407.784790039063 C 724.4962158203125 1407.50048828125 724.2703247070313 1407.213745117188 724.045166015625 1406.925048828125 C 722.3428344726563 1404.741943359375 721.7083129882813 1402.003295898438 722.3041381835938 1399.411254882813 C 722.852783203125 1397.024780273438 724.3901977539063 1395.027465820313 726.6638793945313 1393.72509765625 L 726.4833374023438 1393.235595703125 C 726.4662475585938 1393.189208984375 726.06103515625 1392.086791992188 725.6988525390625 1390.78759765625 C 724.9954833984375 1388.264770507813 725.0938720703125 1387.309814453125 725.22900390625 1386.810913085938 L 725.22900390625 1386.810913085938 C 725.6583251953125 1385.198974609375 727.12158203125 1384.073486328125 728.7894897460938 1384.073486328125 C 729.1129760742188 1384.073486328125 729.4366455078125 1384.116333007813 729.7481079101563 1384.199951171875 C 730.700927734375 1384.452392578125 731.4979858398438 1385.061645507813 731.9925537109375 1385.915405273438 C 732.1644287109375 1386.212158203125 732.2926025390625 1386.526000976563 732.3760375976563 1386.849243164063 M 731.55419921875 1390.188354492188 C 731.2015991210938 1390.646484375 730.6962280273438 1391.215942382813 729.9658813476563 1391.930908203125 C 729.60546875 1392.28369140625 729.253662109375 1392.609741210938 728.952392578125 1392.881225585938 C 729.2758178710938 1392.832153320313 729.6094360351563 1392.807495117188 729.9522094726563 1392.807495117188 C 730.7750854492188 1392.807495117188 731.6190185546875 1392.951171875 732.4548950195313 1393.217529296875 L 732.3861083984375 1393.03173828125 C 732.373779296875 1392.998413085938 732.0804443359375 1392.203125 731.8184204101563 1391.267211914063 C 731.7030029296875 1390.855102539063 731.6170654296875 1390.498291015625 731.55419921875 1390.188354492188 M 735.2661743164063 1392.27734375 C 734.5986328125 1392.9248046875 733.9893798828125 1393.432006835938 733.962890625 1393.453979492188 L 733.6732177734375 1393.694580078125 C 734.2310791015625 1393.953735351563 734.7786254882813 1394.264770507813 735.3071899414063 1394.621337890625 L 735.3032836914063 1394.5693359375 C 735.3009033203125 1394.53759765625 735.2446899414063 1393.780395507813 735.250244140625 1392.90966796875 C 735.2517700195313 1392.680053710938 735.2572631835938 1392.469848632813 735.2661743164063 1392.27734375 M 738.178955078125 1394.681030273438 C 737.4196166992188 1395.092041015625 736.7337646484375 1395.396118164063 736.7047729492188 1395.408935546875 L 736.4754638671875 1395.51025390625 C 737.0633544921875 1396.011840820313 737.6142578125 1396.570434570313 738.1136474609375 1397.175415039063 C 738.1030883789063 1396.9677734375 738.08154296875 1396.450805664063 738.0932006835938 1395.875854492188 C 738.1032104492188 1395.38134765625 738.1345825195313 1394.991821289063 738.178955078125 1394.681030273438 M 739.7709350585938 1398.014038085938 C 739.6152954101563 1398.084106445313 739.5169067382813 1398.1259765625 739.507080078125 1398.130126953125 L 738.9802856445313 1398.353271484375 C 739.1483154296875 1398.610961914063 739.3069458007813 1398.874755859375 739.455322265625 1399.143920898438 C 739.474365234375 1399.057983398438 739.4949951171875 1398.968627929688 739.5171508789063 1398.877685546875 C 739.6027221679688 1398.525634765625 739.6879272460938 1398.243041992188 739.7709350585938 1398.014038085938 M 732.9996948242188 1370.998657226563 C 752.3297119140625 1370.998657226563 767.9996948242188 1386.667236328125 767.9996948242188 1405.997924804688 C 767.9996948242188 1425.328247070313 752.3297119140625 1440.99853515625 732.9996948242188 1440.99853515625 C 713.6715698242188 1440.99853515625 697.9996948242188 1425.328247070313 697.9996948242188 1405.997924804688 C 697.9996948242188 1386.667236328125 713.6715698242188 1370.998657226563 732.9996948242188 1370.998657226563 Z M 727.4215698242188 1392.889526367188 C 727.4215698242188 1392.889526367188 731.0153198242188 1389.902099609375 731.398193359375 1388.465942382813 C 731.7838745117188 1387.026245117188 730.9293823242188 1385.547485351563 729.4920043945313 1385.166625976563 C 729.2571411132813 1385.103515625 729.021484375 1385.073486328125 728.7894897460938 1385.073486328125 C 727.6005249023438 1385.073486328125 726.5136108398438 1385.865356445313 726.1942138671875 1387.072509765625 C 725.805419921875 1388.50732421875 727.4215698242188 1392.889526367188 727.4215698242188 1392.889526367188 Z M 733.323974609375 1392.684692382813 C 733.323974609375 1392.684692382813 735.8787841796875 1390.562622070313 736.1502075195313 1389.5400390625 C 736.423583984375 1388.510986328125 735.8201904296875 1387.459838867188 734.7965698242188 1387.189331054688 C 734.6310424804688 1387.14501953125 734.4647216796875 1387.123901367188 734.3008422851563 1387.123901367188 C 733.45458984375 1387.123901367188 732.6766967773438 1387.688354492188 732.4459838867188 1388.544921875 C 732.1697998046875 1389.56591796875 733.323974609375 1392.684692382813 733.323974609375 1392.684692382813 Z M 736.3004760742188 1394.494262695313 C 736.3004760742188 1394.494262695313 739.011474609375 1393.2958984375 739.4957275390625 1392.489013671875 C 739.980224609375 1391.680541992188 739.7186279296875 1390.630004882813 738.9078979492188 1390.146606445313 C 738.6329345703125 1389.980712890625 738.3297119140625 1389.90185546875 738.0301513671875 1389.90185546875 C 737.4508666992188 1389.90185546875 736.885498046875 1390.196899414063 736.5662231445313 1390.728759765625 C 736.0780029296875 1391.541015625 736.3004760742188 1394.494262695313 736.3004760742188 1394.494262695313 Z M 739.1170043945313 1397.209350585938 C 739.1170043945313 1397.209350585938 741.3826293945313 1396.24951171875 741.7965698242188 1395.57958984375 C 742.2108154296875 1394.913940429688 742.005615234375 1394.039672851563 741.3358154296875 1393.62158203125 C 741.105224609375 1393.478759765625 740.8482666015625 1393.410888671875 740.5938110351563 1393.410888671875 C 740.1173706054688 1393.410888671875 739.6500244140625 1393.649291992188 739.3826293945313 1394.081665039063 C 738.9644775390625 1394.75 739.1170043945313 1397.209350585938 739.1170043945313 1397.209350585938 Z M 728.6742553710938 1427.096069335938 C 730.8170776367188 1427.096069335938 733.66943359375 1425.079223632813 735.1912231445313 1416.611938476563 C 736.2340698242188 1410.826049804688 741.163818359375 1405.303833007813 738.9801025390625 1400.428833007813 C 737.2206420898438 1396.504272460938 733.2583618164063 1393.807495117188 729.9522094726563 1393.807495117188 C 729.1553344726563 1393.807495117188 728.3961181640625 1393.964233398438 727.715576171875 1394.29833984375 C 722.5701904296875 1396.825805664063 721.877685546875 1402.519165039063 724.8338012695313 1406.310180664063 C 727.681396484375 1409.962768554688 730.6539916992188 1413.27001953125 728.531982421875 1416.01416015625 C 723.763427734375 1422.197265625 725.1697998046875 1425.491333007813 726.690185546875 1426.492553710938 C 727.1856079101563 1426.820068359375 727.881103515625 1427.096069335938 728.6742553710938 1427.096069335938 Z M 740.2849731445313 1400.117065429688 C 740.2849731445313 1400.117065429688 742.173583984375 1399.767578125 742.597412109375 1399.33203125 C 743.0272216796875 1398.892700195313 743.023193359375 1398.190551757813 742.581787109375 1397.76171875 C 742.3651733398438 1397.551879882813 742.0864868164063 1397.448364257813 741.8081665039063 1397.448364257813 C 741.5194702148438 1397.448364257813 741.231201171875 1397.559814453125 741.0133056640625 1397.77978515625 C 740.5858154296875 1398.22119140625 740.2849731445313 1400.117065429688 740.2849731445313 1400.117065429688 Z" stroke="none" fill="#fff"/>
      </g>
      <g id="Stroke_Effect" data-name="Stroke Effect" fill="none" stroke-linejoin="round">
        <path d="M733,1371a35,35,0,1,0,35,35A35,35,0,0,0,733,1371Zm8.336,22.623a1.421,1.421,0,0,1,.461,1.958c-.414.67-2.68,1.63-2.68,1.63s-.153-2.459.266-3.128A1.424,1.424,0,0,1,741.336,1393.622Zm-4.77-2.893a1.709,1.709,0,0,1,2.93,1.76c-.484.807-3.2,2.005-3.2,2.005S736.078,1391.541,736.566,1390.729Zm-4.12-2.184a1.918,1.918,0,1,1,3.7,1c-.271,1.023-2.826,3.145-2.826,3.145S732.17,1389.566,732.446,1388.545Zm-6.252-1.472a2.694,2.694,0,1,1,5.2,1.393c-.383,1.436-3.977,4.424-3.977,4.424S725.805,1388.507,726.194,1387.073Zm9,29.539c-2.085,11.6-6.667,11.093-8.5,9.881-1.52-1-2.927-4.3,1.842-10.478,2.122-2.744-.851-6.051-3.7-9.7a7.75,7.75,0,0,1,2.882-12.012c3.5-1.72,9.081,1.26,11.265,6.13S736.234,1410.826,735.191,1416.612Zm7.406-17.28a7.053,7.053,0,0,1-2.312.785,7.068,7.068,0,0,1,.728-2.337,1.109,1.109,0,1,1,1.584,1.552Z" stroke="none"/>
        <path d="M 732.9996948242188 1370.998657226563 C 713.6715698242188 1370.998657226563 697.9996948242188 1386.667236328125 697.9996948242188 1405.997924804688 C 697.9996948242188 1425.328247070313 713.6715698242188 1440.99853515625 732.9996948242188 1440.99853515625 C 752.3297119140625 1440.99853515625 767.9996948242188 1425.328247070313 767.9996948242188 1405.997924804688 C 767.9996948242188 1386.667236328125 752.3297119140625 1370.998657226563 732.9996948242188 1370.998657226563 M 727.4215698242188 1392.889526367188 C 727.4215698242188 1392.889526367188 725.805419921875 1388.50732421875 726.1942138671875 1387.072509765625 C 726.5136108398438 1385.865356445313 727.6005249023438 1385.073486328125 728.7894897460938 1385.073486328125 C 729.021484375 1385.073486328125 729.2571411132813 1385.103515625 729.4920043945313 1385.166625976563 C 730.9293823242188 1385.547485351563 731.7838745117188 1387.026245117188 731.398193359375 1388.465942382813 C 731.0153198242188 1389.902099609375 727.4215698242188 1392.889526367188 727.4215698242188 1392.889526367188 M 733.323974609375 1392.684692382813 C 733.323974609375 1392.684692382813 732.1697998046875 1389.56591796875 732.4459838867188 1388.544921875 C 732.6766967773438 1387.688354492188 733.45458984375 1387.123901367188 734.3008422851563 1387.123901367188 C 734.4647216796875 1387.123901367188 734.6310424804688 1387.14501953125 734.7965698242188 1387.189331054688 C 735.8201904296875 1387.459838867188 736.423583984375 1388.510986328125 736.1502075195313 1389.5400390625 C 735.8787841796875 1390.562622070313 733.323974609375 1392.684692382813 733.323974609375 1392.684692382813 M 736.3004760742188 1394.494262695313 C 736.3004760742188 1394.494262695313 736.0780029296875 1391.541015625 736.5662231445313 1390.728759765625 C 736.885498046875 1390.196899414063 737.4508666992188 1389.90185546875 738.0301513671875 1389.90185546875 C 738.3297119140625 1389.90185546875 738.6329345703125 1389.980712890625 738.9078979492188 1390.146606445313 C 739.7186279296875 1390.630004882813 739.980224609375 1391.680541992188 739.4957275390625 1392.489013671875 C 739.011474609375 1393.2958984375 736.3004760742188 1394.494262695313 736.3004760742188 1394.494262695313 M 739.1170043945313 1397.209350585938 C 739.1170043945313 1397.209350585938 738.9644775390625 1394.75 739.3826293945313 1394.081665039063 C 739.6499633789063 1393.649291992188 740.1173706054688 1393.410888671875 740.5938110351563 1393.410888671875 C 740.8482666015625 1393.410888671875 741.105224609375 1393.478881835938 741.3358154296875 1393.62158203125 C 742.005615234375 1394.039672851563 742.2108154296875 1394.913940429688 741.7965698242188 1395.57958984375 C 741.3826293945313 1396.24951171875 739.1170043945313 1397.209350585938 739.1170043945313 1397.209350585938 M 728.6742553710938 1427.096069335938 C 727.881103515625 1427.096069335938 727.1856079101563 1426.820068359375 726.690185546875 1426.492553710938 C 725.1697998046875 1425.491333007813 723.763427734375 1422.197265625 728.531982421875 1416.01416015625 C 730.6539916992188 1413.27001953125 727.681396484375 1409.962768554688 724.8338012695313 1406.310180664063 C 721.877685546875 1402.519165039063 722.5701904296875 1396.825805664063 727.715576171875 1394.29833984375 C 728.3961181640625 1393.964233398438 729.1553344726563 1393.807495117188 729.9522094726563 1393.807495117188 C 733.2583618164063 1393.807495117188 737.2206420898438 1396.504272460938 738.9801025390625 1400.428833007813 C 741.163818359375 1405.303833007813 736.2340698242188 1410.826049804688 735.1912231445313 1416.611938476563 C 733.66943359375 1425.079223632813 730.8170776367188 1427.096069335938 728.6742553710938 1427.096069335938 M 740.2849731445313 1400.117065429688 C 740.2849731445313 1400.117065429688 740.5858154296875 1398.22119140625 741.0133056640625 1397.77978515625 C 741.231201171875 1397.559814453125 741.5194702148438 1397.448364257813 741.8081665039063 1397.448364257813 C 742.0864868164063 1397.448364257813 742.3651733398438 1397.551879882813 742.581787109375 1397.76171875 C 743.023193359375 1398.190551757813 743.0272216796875 1398.892700195313 742.597412109375 1399.33203125 C 742.173583984375 1399.767578125 740.2849731445313 1400.117065429688 740.2849731445313 1400.117065429688 M 732.9996948242188 1368.998657226563 C 737.9938354492188 1368.998657226563 742.8395385742188 1369.977172851563 747.40234375 1371.906860351563 C 751.8085327148438 1373.770385742188 755.7652587890625 1376.437866210938 759.16259765625 1379.835083007813 C 762.56005859375 1383.232299804688 765.2276000976563 1387.18896484375 767.0912475585938 1391.595092773438 C 769.0211791992188 1396.157836914063 769.9996948242188 1401.003662109375 769.9996948242188 1405.997924804688 C 769.9996948242188 1410.992065429688 769.0211791992188 1415.837890625 767.0912475585938 1420.40087890625 C 765.2276000976563 1424.80712890625 762.56005859375 1428.763916015625 759.1626586914063 1432.161254882813 C 755.7653198242188 1435.558715820313 751.80859375 1438.226318359375 747.4024047851563 1440.089965820313 C 742.839599609375 1442.02001953125 737.9937744140625 1442.99853515625 732.9996948242188 1442.99853515625 C 728.0060424804688 1442.99853515625 723.1605224609375 1442.02001953125 718.5977783203125 1440.089965820313 C 714.191650390625 1438.226318359375 710.2349243164063 1435.558715820313 706.8374633789063 1432.161376953125 C 703.43994140625 1428.763916015625 700.772216796875 1424.80712890625 698.908447265625 1420.40087890625 C 696.9783325195313 1415.837890625 695.9996948242188 1410.992065429688 695.9996948242188 1405.997924804688 C 695.9996948242188 1401.003662109375 696.9783325195313 1396.157836914063 698.908447265625 1391.594970703125 C 700.772216796875 1387.18896484375 703.43994140625 1383.232299804688 706.8375244140625 1379.8349609375 C 710.2349243164063 1376.437866210938 714.191650390625 1373.770385742188 718.5978393554688 1371.906860351563 C 723.1605224609375 1369.977172851563 728.0060424804688 1368.998657226563 732.9996948242188 1368.998657226563 Z M 729.4745483398438 1387.913940429688 C 729.5233764648438 1387.685791015625 729.4478759765625 1387.507568359375 729.3966064453125 1387.419067382813 C 729.34326171875 1387.327026367188 729.2182006835938 1387.1630859375 728.979736328125 1387.099853515625 C 728.9776000976563 1387.099365234375 728.9755249023438 1387.098754882813 728.973388671875 1387.098266601563 C 728.9122314453125 1387.081787109375 728.850341796875 1387.073486328125 728.7894897460938 1387.073486328125 C 728.5426025390625 1387.073486328125 728.2374267578125 1387.224731445313 728.1356811523438 1387.55615234375 C 728.1289672851563 1387.650756835938 728.119384765625 1388.102416992188 728.3974609375 1389.251220703125 C 729.2083740234375 1388.401123046875 729.4301147460938 1388.004028320313 729.4745483398438 1387.913940429688 Z M 728.6742553710938 1425.096069335938 C 729.4527587890625 1425.096069335938 730.1322631835938 1424.407470703125 730.5652465820313 1423.829711914063 C 731.3433837890625 1422.79150390625 732.4361572265625 1420.635131835938 733.2227783203125 1416.258178710938 C 733.6495971679688 1413.889892578125 734.61572265625 1411.672607421875 735.5501098632813 1409.5283203125 C 736.9562377929688 1406.30126953125 738.170654296875 1403.51416015625 737.1548461914063 1401.246459960938 C 736.4620361328125 1399.701049804688 735.2990112304688 1398.289184570313 733.8804321289063 1397.271606445313 C 732.5833129882813 1396.341064453125 731.1515502929688 1395.807495117188 729.9522094726563 1395.807495117188 C 729.4398193359375 1395.807495117188 728.9838256835938 1395.90380859375 728.5968627929688 1396.09375 C 726.3125610351563 1397.2158203125 725.50390625 1398.882690429688 725.2279052734375 1400.08349609375 C 724.8352661132813 1401.791259765625 725.2664794921875 1403.612670898438 726.4110107421875 1405.080322265625 C 726.6329956054688 1405.365112304688 726.8556518554688 1405.647583007813 727.0765380859375 1405.927856445313 C 728.4653930664063 1407.690063476563 729.7772827148438 1409.3544921875 730.5517578125 1411.05615234375 C 731.038818359375 1412.126220703125 731.2675170898438 1413.110717773438 731.2509155273438 1414.065795898438 C 731.2308349609375 1415.220947265625 730.8483276367188 1416.2880859375 730.1141357421875 1417.237670898438 C 727.19580078125 1421.021606445313 727.165771484375 1423.13525390625 727.2883911132813 1423.868286132813 C 727.3971557617188 1424.518432617188 727.699951171875 1424.762817382813 727.7901611328125 1424.822265625 C 727.916748046875 1424.905883789063 728.2501831054688 1425.096069335938 728.6742553710938 1425.096069335938 Z" stroke="none" fill="#f56856"/>
      </g>
    </g>
  </g>
</svg>
