<svg xmlns="http://www.w3.org/2000/svg" width="70" height="69.999" viewBox="0 0 70 69.999">
  <path id="Forma_1" data-name="Forma 1" d="M706.071,1647.882a1.522,1.522,0,0,1-.941-1.406v-13.8a10.674,10.674,0,0,1-9.13-10.546V1588.65A10.665,10.665,0,0,1,706.652,1578h48.7A10.664,10.664,0,0,1,766,1588.65v33.478a10.664,10.664,0,0,1-10.652,10.652H722.5l-14.77,14.773a1.528,1.528,0,0,1-1.077.444A1.554,1.554,0,0,1,706.071,1647.882Zm-7.027-59.232v33.478a7.617,7.617,0,0,0,7.609,7.609,1.522,1.522,0,0,1,1.522,1.522V1642.8l12.618-12.622a1.533,1.533,0,0,1,1.078-.445h33.477a7.617,7.617,0,0,0,7.609-7.609V1588.65a7.617,7.617,0,0,0-7.609-7.609h-48.7A7.617,7.617,0,0,0,699.044,1588.65Zm27.391,30.434A4.565,4.565,0,1,1,731,1623.65,4.571,4.571,0,0,1,726.435,1619.085Zm3.044,0a1.521,1.521,0,1,0,1.521-1.521A1.523,1.523,0,0,0,729.479,1619.085Zm-3.242-12.025-1.311-15.04a4.564,4.564,0,0,1,4.553-4.891h3.043a4.572,4.572,0,0,1,4.553,4.913l-1.287,14.995a4.789,4.789,0,0,1-9.551.023Zm2.128-16.4a1.488,1.488,0,0,0-.408,1.122l1.315,15.044a1.747,1.747,0,0,0,3.485-.024l1.284-14.995a1.522,1.522,0,0,0-1.519-1.632h-3.043A1.516,1.516,0,0,0,728.365,1590.656Z" transform="translate(-696 -1577.998)" fill="#b9cfdd"/>
</svg>
