<svg xmlns="http://www.w3.org/2000/svg" width="74" height="74" viewBox="0 0 74 74">
  <g id="Сгруппировать_1" data-name="Сгруппировать 1" transform="translate(-696 -1180.998)">
    <ellipse id="Ellipse_521_copy_13" data-name="Ellipse 521 copy 13" cx="22" cy="31" rx="22" ry="31" transform="translate(710 1188)" fill="#f56856"/>
    <g id="Shape_1_copy_4" data-name="Shape 1 copy 4">
      <g id="Shape_1_copy_4-2" data-name="Shape 1 copy 4" fill="#fff">
        <path d="M 732.9987182617188 1252.498046875 C 728.3411865234375 1252.498046875 723.8232421875 1251.5859375 719.5703125 1249.786987304688 C 715.4622802734375 1248.04931640625 711.772705078125 1245.561645507813 708.6041870117188 1242.392944335938 C 705.4356689453125 1239.224365234375 702.9480590820313 1235.53466796875 701.21044921875 1231.426513671875 C 699.41162109375 1227.173461914063 698.49951171875 1222.655517578125 698.49951171875 1217.997924804688 C 698.49951171875 1213.34033203125 699.41162109375 1208.822387695313 701.21044921875 1204.5693359375 C 702.9480590820313 1200.461181640625 705.4356689453125 1196.771484375 708.6041870117188 1193.602905273438 C 711.772705078125 1190.434204101563 715.4622802734375 1187.946533203125 719.5703125 1186.208862304688 C 723.8232421875 1184.409912109375 728.3411865234375 1183.497802734375 732.9987182617188 1183.497802734375 C 737.6564331054688 1183.497802734375 742.1746215820313 1184.409912109375 746.4277954101563 1186.208862304688 C 750.5360717773438 1187.946533203125 754.2257690429688 1190.434204101563 757.3944702148438 1193.602905273438 C 760.5631713867188 1196.771606445313 763.0509033203125 1200.461181640625 764.78857421875 1204.5693359375 C 766.5875244140625 1208.822387695313 767.4996948242188 1213.34033203125 767.4996948242188 1217.997924804688 C 767.4996948242188 1222.655517578125 766.5875244140625 1227.173461914063 764.78857421875 1231.426513671875 C 763.0509033203125 1235.53466796875 760.5631713867188 1239.224243164063 757.3944702148438 1242.392944335938 C 754.2257690429688 1245.561645507813 750.5360717773438 1248.04931640625 746.4277954101563 1249.786987304688 C 742.1746215820313 1251.5859375 737.6564331054688 1252.498046875 732.9987182617188 1252.498046875 Z M 720.9013061523438 1214.185791015625 C 718.9852294921875 1214.769287109375 717.6334228515625 1216.563354492188 717.6334228515625 1218.598266601563 L 717.6334228515625 1231.878662109375 C 717.6334228515625 1234.422729492188 719.7028198242188 1236.492553710938 722.2463989257813 1236.492553710938 L 743.7537231445313 1236.492553710938 C 746.29736328125 1236.492553710938 748.36669921875 1234.422729492188 748.36669921875 1231.878662109375 L 748.36669921875 1231.378662109375 L 748.3658447265625 1231.378662109375 L 748.3658447265625 1218.598266601563 C 748.3658447265625 1216.565063476563 747.0148315429688 1214.77099609375 745.0997314453125 1214.186157226563 L 745.0997314453125 1208.57763671875 C 745.0997314453125 1201.905151367188 739.6720581054688 1196.476684570313 733.00048828125 1196.476684570313 C 726.3289794921875 1196.476684570313 720.9013061523438 1201.905151367188 720.9013061523438 1208.57763671875 L 720.9013061523438 1214.185791015625 Z M 734.31494140625 1231.015014648438 L 731.684326171875 1231.015014648438 L 731.684326171875 1227.468627929688 L 731.684326171875 1227.180053710938 L 731.4344482421875 1227.03564453125 C 730.4633178710938 1226.474609375 729.8600463867188 1225.433227539063 729.8600463867188 1224.317749023438 C 729.8600463867188 1222.586547851563 731.2684326171875 1221.178100585938 732.9996337890625 1221.178100585938 C 734.7308349609375 1221.178100585938 736.1392211914063 1222.586547851563 736.1392211914063 1224.317749023438 C 736.1392211914063 1225.43359375 735.5360107421875 1226.47509765625 734.5650024414063 1227.03564453125 L 734.31494140625 1227.179931640625 L 734.31494140625 1227.468627929688 L 734.31494140625 1231.015014648438 Z M 738.048095703125 1213.984375 L 727.9537963867188 1213.984375 L 727.9537963867188 1208.57763671875 C 727.9537963867188 1205.7939453125 730.2181396484375 1203.529174804688 733.0014038085938 1203.529174804688 C 735.7841796875 1203.529174804688 738.048095703125 1205.7939453125 738.048095703125 1208.57763671875 L 738.048095703125 1213.984375 Z" stroke="none"/>
        <path d="M 732.9987182617188 1183.997802734375 C 728.4085083007813 1183.997802734375 723.9560546875 1184.896606445313 719.76513671875 1186.669311523438 C 715.7166748046875 1188.3818359375 712.0805053710938 1190.833618164063 708.957763671875 1193.956420898438 C 705.8349609375 1197.079345703125 703.3833618164063 1200.715576171875 701.6709594726563 1204.76416015625 C 699.8983154296875 1208.955200195313 698.99951171875 1213.40771484375 698.99951171875 1217.997924804688 C 698.99951171875 1222.588134765625 699.8983154296875 1227.040649414063 701.6709594726563 1231.231689453125 C 703.3833618164063 1235.2802734375 705.8349609375 1238.91650390625 708.957763671875 1242.039428710938 C 712.0805053710938 1245.162231445313 715.7166748046875 1247.614013671875 719.76513671875 1249.326538085938 C 723.9560546875 1251.099243164063 728.4085083007813 1251.998046875 732.9987182617188 1251.998046875 C 737.5891723632813 1251.998046875 742.0418090820313 1251.099243164063 746.2329711914063 1249.326416015625 C 750.2816772460938 1247.614013671875 753.9180297851563 1245.162231445313 757.0409545898438 1242.039428710938 C 760.1638793945313 1238.91650390625 762.6156616210938 1235.2802734375 764.328125 1231.231689453125 C 766.100830078125 1227.040649414063 766.9996948242188 1222.588134765625 766.9996948242188 1217.997924804688 C 766.9996948242188 1213.40771484375 766.100830078125 1208.955200195313 764.328125 1204.76416015625 C 762.6156616210938 1200.715576171875 760.1638793945313 1197.079345703125 757.0409545898438 1193.956420898438 C 753.9180297851563 1190.833618164063 750.2816772460938 1188.3818359375 746.2329711914063 1186.66943359375 C 742.0418090820313 1184.896606445313 737.5891723632813 1183.997802734375 732.9987182617188 1183.997802734375 M 745.5997314453125 1213.830688476563 C 747.5328979492188 1214.582275390625 748.8658447265625 1216.472290039063 748.8658447265625 1218.598266601563 L 748.8658447265625 1230.878662109375 L 748.86669921875 1230.878662109375 L 748.86669921875 1231.878662109375 C 748.86669921875 1234.698486328125 746.5730590820313 1236.992553710938 743.7537231445313 1236.992553710938 L 722.2463989257813 1236.992553710938 C 719.4271240234375 1236.992553710938 717.1334228515625 1234.698486328125 717.1334228515625 1231.878662109375 L 717.1334228515625 1218.598266601563 C 717.1334228515625 1216.470581054688 718.467041015625 1214.580322265625 720.4013061523438 1213.830078125 L 720.4013061523438 1208.57763671875 C 720.4013061523438 1201.629516601563 726.0532836914063 1195.976684570313 733.00048828125 1195.976684570313 C 739.94775390625 1195.976684570313 745.5997314453125 1201.629516601563 745.5997314453125 1208.57763671875 L 745.5997314453125 1213.830688476563 M 733.0014038085938 1204.029174804688 C 730.4938354492188 1204.029174804688 728.4537963867188 1206.069580078125 728.4537963867188 1208.57763671875 L 728.4537963867188 1213.484375 L 737.548095703125 1213.484375 L 737.548095703125 1208.57763671875 C 737.548095703125 1206.069580078125 735.5084838867188 1204.029174804688 733.0014038085938 1204.029174804688 M 732.9996337890625 1221.678100585938 C 731.544189453125 1221.678100585938 730.3600463867188 1222.862182617188 730.3600463867188 1224.317749023438 C 730.3600463867188 1225.255249023438 730.8675537109375 1226.130737304688 731.6845703125 1226.602783203125 L 732.184326171875 1226.891479492188 L 732.184326171875 1227.468627929688 L 732.184326171875 1230.515014648438 L 733.81494140625 1230.515014648438 L 733.81494140625 1227.468627929688 L 733.81494140625 1226.891235351563 L 734.3150024414063 1226.6025390625 C 735.1318359375 1226.131103515625 735.6392211914063 1225.255615234375 735.6392211914063 1224.317749023438 C 735.6392211914063 1222.862182617188 734.455078125 1221.678100585938 732.9996337890625 1221.678100585938 M 732.9987182617188 1182.997802734375 C 752.3289184570313 1182.997802734375 767.9996948242188 1198.668579101563 767.9996948242188 1217.997924804688 C 767.9996948242188 1237.327270507813 752.3289184570313 1252.998046875 732.9987182617188 1252.998046875 C 713.66943359375 1252.998046875 697.99951171875 1237.327270507813 697.99951171875 1217.997924804688 C 697.99951171875 1198.668579101563 713.66943359375 1182.997802734375 732.9987182617188 1182.997802734375 Z M 743.7537231445313 1235.992553710938 C 746.0253295898438 1235.992553710938 747.86669921875 1234.151977539063 747.86669921875 1231.878662109375 L 747.8658447265625 1231.878662109375 L 747.8658447265625 1218.598266601563 C 747.8658447265625 1216.616455078125 746.4645385742188 1214.963989257813 744.5997314453125 1214.573486328125 L 744.5997314453125 1208.57763671875 C 744.5997314453125 1202.180419921875 739.3959350585938 1196.976684570313 733.00048828125 1196.976684570313 C 726.604248046875 1196.976684570313 721.4013061523438 1202.181274414063 721.4013061523438 1208.57763671875 L 721.4013061523438 1214.573486328125 C 719.53564453125 1214.962280273438 718.1334228515625 1216.616455078125 718.1334228515625 1218.598266601563 L 718.1334228515625 1231.878662109375 C 718.1334228515625 1234.151977539063 719.9747924804688 1235.992553710938 722.2463989257813 1235.992553710938 L 743.7537231445313 1235.992553710938 Z M 733.0014038085938 1203.029174804688 C 736.0596313476563 1203.029174804688 738.548095703125 1205.5185546875 738.548095703125 1208.57763671875 L 738.548095703125 1214.484375 L 727.4537963867188 1214.484375 L 727.4537963867188 1208.57763671875 C 727.4537963867188 1205.5185546875 729.94140625 1203.029174804688 733.0014038085938 1203.029174804688 Z M 732.9996337890625 1220.678100585938 C 735.0093383789063 1220.678100585938 736.6392211914063 1222.30712890625 736.6392211914063 1224.317749023438 C 736.6392211914063 1225.6650390625 735.9048461914063 1226.839477539063 734.81494140625 1227.468627929688 L 734.81494140625 1231.515014648438 L 731.184326171875 1231.515014648438 L 731.184326171875 1227.468627929688 C 730.0953369140625 1226.839477539063 729.3600463867188 1225.6650390625 729.3600463867188 1224.317749023438 C 729.3600463867188 1222.30712890625 730.9899291992188 1220.678100585938 732.9996337890625 1220.678100585938 Z" stroke="none" fill="#fff"/>
      </g>
      <g id="Stroke_Effect" data-name="Stroke Effect" fill="none" stroke-linejoin="round">
        <path d="M698,1218a35,35,0,1,1,35,35A35,35,0,0,1,698,1218Zm23.4-9.42v6a4.113,4.113,0,0,0-3.268,4.025v13.28a4.113,4.113,0,0,0,4.113,4.114h21.507a4.113,4.113,0,0,0,4.113-4.114h0V1218.6a4.113,4.113,0,0,0-3.266-4.025v-6a11.6,11.6,0,1,0-23.2,0Zm9.783,22.937v-4.046a3.64,3.64,0,1,1,3.631,0v4.046Zm-3.731-17.031v-5.907a5.547,5.547,0,1,1,11.094,0v5.907Z" stroke="none"/>
        <path d="M 732.9987182617188 1182.997802734375 C 713.66943359375 1182.997802734375 697.99951171875 1198.668579101563 697.99951171875 1217.997924804688 C 697.99951171875 1237.327270507813 713.66943359375 1252.998046875 732.9987182617188 1252.998046875 C 752.3289184570313 1252.998046875 767.9996948242188 1237.327270507813 767.9996948242188 1217.997924804688 C 767.9996948242188 1198.668579101563 752.3289184570313 1182.997802734375 732.9987182617188 1182.997802734375 M 743.7537231445313 1235.992553710938 L 722.2463989257813 1235.992553710938 C 719.9747924804688 1235.992553710938 718.1334228515625 1234.151977539063 718.1334228515625 1231.878662109375 L 718.1334228515625 1218.598266601563 C 718.1334228515625 1216.616455078125 719.53564453125 1214.962280273438 721.4013061523438 1214.573486328125 L 721.4013061523438 1208.57763671875 C 721.4013061523438 1202.181274414063 726.604248046875 1196.976684570313 733.00048828125 1196.976684570313 C 739.3959350585938 1196.976684570313 744.5997314453125 1202.180419921875 744.5997314453125 1208.57763671875 L 744.5997314453125 1214.573486328125 C 746.4645385742188 1214.963989257813 747.8658447265625 1216.616455078125 747.8658447265625 1218.598266601563 L 747.8658447265625 1231.878662109375 L 747.86669921875 1231.878662109375 C 747.86669921875 1234.151977539063 746.0253295898438 1235.992553710938 743.7537231445313 1235.992553710938 M 733.0014038085938 1203.029174804688 C 729.94140625 1203.029174804688 727.4537963867188 1205.5185546875 727.4537963867188 1208.57763671875 L 727.4537963867188 1214.484375 L 738.548095703125 1214.484375 L 738.548095703125 1208.57763671875 C 738.548095703125 1205.5185546875 736.0596313476563 1203.029174804688 733.0014038085938 1203.029174804688 M 732.9996337890625 1220.678100585938 C 730.9899291992188 1220.678100585938 729.3600463867188 1222.30712890625 729.3600463867188 1224.317749023438 C 729.3600463867188 1225.6650390625 730.0953369140625 1226.839477539063 731.184326171875 1227.468627929688 L 731.184326171875 1231.515014648438 L 734.81494140625 1231.515014648438 L 734.81494140625 1227.468627929688 C 735.9048461914063 1226.839477539063 736.6392211914063 1225.6650390625 736.6392211914063 1224.317749023438 C 736.6392211914063 1222.30712890625 735.0093383789063 1220.678100585938 732.9996337890625 1220.678100585938 M 732.9987182617188 1180.997802734375 C 737.9928588867188 1180.997802734375 742.8386840820313 1181.976440429688 747.4016723632813 1183.906372070313 C 751.8079223632813 1185.77001953125 755.7647705078125 1188.437744140625 759.1622314453125 1191.835083007813 C 762.5596923828125 1195.232543945313 765.2273559570313 1199.189331054688 767.091064453125 1203.595458984375 C 769.0211181640625 1208.158325195313 769.9996948242188 1213.004028320313 769.9996948242188 1217.997924804688 C 769.9996948242188 1222.991821289063 769.0211181640625 1227.837524414063 767.091064453125 1232.400390625 C 765.2273559570313 1236.806518554688 762.5596923828125 1240.763305664063 759.1622314453125 1244.160766601563 C 755.7647705078125 1247.55810546875 751.8079223632813 1250.225830078125 747.4016723632813 1252.089477539063 C 742.8386840820313 1254.019409179688 737.9928588867188 1254.998046875 732.9987182617188 1254.998046875 C 728.0048217773438 1254.998046875 723.1591796875 1254.019409179688 718.596435546875 1252.089477539063 C 714.1903686523438 1250.225708007813 710.2337036132813 1247.55810546875 706.83642578125 1244.16064453125 C 703.4390869140625 1240.763305664063 700.7716064453125 1236.806518554688 698.907958984375 1232.400390625 C 696.97802734375 1227.837524414063 695.99951171875 1222.991821289063 695.99951171875 1217.997924804688 C 695.99951171875 1213.004028320313 696.97802734375 1208.158325195313 698.907958984375 1203.595458984375 C 700.7716064453125 1199.189331054688 703.4390869140625 1195.232543945313 706.83642578125 1191.835205078125 C 710.2337036132813 1188.437744140625 714.1903686523438 1185.770141601563 718.596435546875 1183.906372070313 C 723.1591796875 1181.976440429688 728.0048217773438 1180.997802734375 732.9987182617188 1180.997802734375 Z M 745.8662719726563 1231.9208984375 C 745.865966796875 1231.906860351563 745.8658447265625 1231.892822265625 745.8658447265625 1231.878662109375 L 745.8658447265625 1218.598266601563 C 745.8658447265625 1217.603759765625 745.1609497070313 1216.734375 744.1898193359375 1216.531005859375 C 743.2633056640625 1216.337036132813 742.5997314453125 1215.52001953125 742.5997314453125 1214.573486328125 L 742.5997314453125 1208.57763671875 C 742.5997314453125 1203.28369140625 738.2935180664063 1198.976684570313 733.00048828125 1198.976684570313 C 727.7074584960938 1198.976684570313 723.4013061523438 1203.28369140625 723.4013061523438 1208.57763671875 L 723.4013061523438 1214.573486328125 C 723.4013061523438 1215.520751953125 722.7366943359375 1216.338134765625 721.809326171875 1216.531372070313 C 720.8382568359375 1216.733764648438 720.1334228515625 1217.60302734375 720.1334228515625 1218.598266601563 L 720.1334228515625 1231.878662109375 C 720.1334228515625 1233.044311523438 721.081298828125 1233.992553710938 722.2463989257813 1233.992553710938 L 743.7537231445313 1233.992553710938 C 744.9046630859375 1233.992553710938 745.8436279296875 1233.067016601563 745.8662719726563 1231.9208984375 Z M 733.0014038085938 1201.029174804688 C 737.1626586914063 1201.029174804688 740.548095703125 1204.415405273438 740.548095703125 1208.57763671875 L 740.548095703125 1214.484375 C 740.548095703125 1215.588989257813 739.6526489257813 1216.484375 738.548095703125 1216.484375 L 727.4537963867188 1216.484375 C 726.3492431640625 1216.484375 725.4537963867188 1215.588989257813 725.4537963867188 1214.484375 L 725.4537963867188 1208.57763671875 C 725.4537963867188 1204.415405273438 728.8396606445313 1201.029174804688 733.0014038085938 1201.029174804688 Z M 732.9996337890625 1218.678100585938 C 736.1093139648438 1218.678100585938 738.6392211914063 1221.2080078125 738.6392211914063 1224.317749023438 C 738.6392211914063 1225.905639648438 737.9613647460938 1227.40869140625 736.81494140625 1228.465209960938 L 736.81494140625 1231.515014648438 C 736.81494140625 1232.61962890625 735.9194946289063 1233.515014648438 734.81494140625 1233.515014648438 L 731.184326171875 1233.515014648438 C 730.0797729492188 1233.515014648438 729.184326171875 1232.61962890625 729.184326171875 1231.515014648438 L 729.184326171875 1228.464965820313 C 728.0379638671875 1227.408203125 727.3600463867188 1225.905029296875 727.3600463867188 1224.317749023438 C 727.3600463867188 1221.2080078125 729.8899536132813 1218.678100585938 732.9996337890625 1218.678100585938 Z" stroke="none" fill="#f56856"/>
      </g>
    </g>
  </g>
</svg>
