<?xml version="1.0" encoding="UTF-8"?>
<svg xmlns="http://www.w3.org/2000/svg" xmlns:xlink="http://www.w3.org/1999/xlink" width="22px" height="25px" viewBox="0 0 22 25" version="1.1">
<g id="surface1">
<path style=" stroke:none;fill-rule:nonzero;fill:rgb(255%,255%,255%);fill-opacity:1;" d="M 0 4.6875 C 0 3.824219 0.703125 3.125 1.570312 3.125 L 20.429688 3.125 C 21.296875 3.125 22 3.824219 22 4.6875 C 22 5.550781 21.296875 6.25 20.429688 6.25 L 1.570312 6.25 C 0.703125 6.25 0 5.550781 0 4.6875 Z M 0 12.5 C 0 11.636719 0.703125 10.9375 1.570312 10.9375 L 20.429688 10.9375 C 21.296875 10.9375 22 11.636719 22 12.5 C 22 13.363281 21.296875 14.0625 20.429688 14.0625 L 1.570312 14.0625 C 0.703125 14.0625 0 13.363281 0 12.5 Z M 20.429688 21.875 L 1.570312 21.875 C 0.703125 21.875 0 21.175781 0 20.3125 C 0 19.449219 0.703125 18.75 1.570312 18.75 L 20.429688 18.75 C 21.296875 18.75 22 19.449219 22 20.3125 C 22 21.175781 21.296875 21.875 20.429688 21.875 Z M 20.429688 21.875 "/>
</g>
</svg>
