<?xml version="1.0" encoding="UTF-8"?>
<svg xmlns="http://www.w3.org/2000/svg" xmlns:xlink="http://www.w3.org/1999/xlink" width="400px" height="400px" viewBox="0 0 400 400" version="1.1">
<g id="surface1">
<path style=" stroke:none;fill-rule:nonzero;fill:rgb(0%,0%,0%);fill-opacity:1;" d="M 188.125 0.3125 C 178.3125 0.9375 167.59375 2.375 158.6875 4.28125 L 156.25 4.78125 L 154.4375 7.15625 C 138.21875 28.125 127.75 64.59375 123.46875 115 C 121.9375 132.8125 121.5 145.0625 121.53125 167.1875 C 121.5625 177.40625 121.6875 186.65625 121.8125 187.6875 L 122.03125 189.59375 L 139.96875 158.53125 L 157.90625 127.4375 L 160.59375 125.71875 C 191 106.03125 227.5625 86.78125 256.40625 75.25 C 287.625 62.75 313.40625 56.8125 334.46875 57.21875 C 337.5 57.28125 340 57.28125 339.96875 57.1875 C 339.90625 56.84375 331.8125 49.53125 327.8125 46.1875 C 310.1875 31.53125 289.78125 19.8125 268.125 11.9375 C 251.90625 6.0625 235.625 2.4375 217.65625 0.75 C 211.65625 0.21875 194.03125 -0.0625 188.125 0.3125 Z M 188.125 0.3125 "/>
<path style=" stroke:none;fill-rule:nonzero;fill:rgb(0%,0%,0%);fill-opacity:1;" d="M 140.625 8.96875 C 109.40625 18.75 81.1875 35.875 58.1875 59.03125 C 36.75 80.59375 20.96875 105.9375 10.75 135.1875 L 9.03125 140.125 L 10.03125 142.625 C 16.625 159.3125 32.21875 178.6875 54.6875 198.0625 C 79.15625 219.125 111.03125 240.375 149.5 261.21875 C 151.125 262.125 151.90625 262.40625 151.78125 262.0625 C 151.59375 261.5625 119.75 206.3125 117.34375 202.34375 C 116.625 201.125 116.03125 199.9375 116.03125 199.6875 C 116.03125 199.4375 115.84375 194.28125 115.625 188.28125 C 115.34375 180.9375 115.28125 171.34375 115.40625 159.0625 C 115.59375 141.03125 115.78125 135.21875 116.71875 121.71875 C 120.25 71.5 130.3125 32 145.34375 9.28125 C 146.03125 8.28125 146.5625 7.40625 146.5625 7.3125 C 146.5625 7.09375 146.34375 7.15625 140.625 8.96875 Z M 140.625 8.96875 "/>
<path style=" stroke:none;fill-rule:nonzero;fill:rgb(0%,0%,0%);fill-opacity:1;" d="M 324.21875 63.625 C 323.71875 63.6875 321.75 63.90625 319.84375 64.09375 C 288.46875 67.1875 242.84375 84.875 193.3125 113.09375 C 186.59375 116.9375 172.28125 125.5 170.53125 126.71875 C 169.9375 127.125 173.75 127.1875 205.75 127.1875 L 241.65625 127.1875 L 247.46875 130.21875 C 270.1875 142 296.71875 158 316.25 171.6875 C 353.9375 198.0625 379.59375 223.53125 391.65625 246.5 C 392.65625 248.4375 393.5625 250 393.59375 249.9375 C 393.84375 249.71875 395.34375 243.21875 396.21875 238.75 C 397.4375 232.46875 398.59375 224.40625 399.28125 217.34375 C 400.03125 209.5 400.03125 190.59375 399.28125 182.65625 C 396.75 156.3125 390.3125 133.5625 379.03125 110.9375 C 372.4375 97.75 365.15625 86.28125 356.40625 75.40625 C 352.625 70.6875 347.65625 64.9375 347.03125 64.625 C 345.96875 64 338.25 63.4375 331.875 63.46875 C 328.1875 63.5 324.75 63.59375 324.21875 63.625 Z M 324.21875 63.625 "/>
<path style=" stroke:none;fill-rule:nonzero;fill:rgb(0%,0%,0%);fill-opacity:1;" d="M 248.21875 137.875 C 248.3125 138.15625 256.375 152.1875 266.125 169.0625 C 280.375 193.75 283.875 200.03125 283.96875 201.0625 C 284.6875 210.25 284.9375 243.03125 284.375 257.34375 C 282.65625 301.84375 277.15625 336.90625 267.65625 363.59375 C 263.9375 374 259.0625 384.15625 254.625 390.71875 C 253.9375 391.71875 253.4375 392.59375 253.5 392.65625 C 253.53125 392.71875 256.1875 391.9375 259.375 390.96875 C 307.625 376.0625 348.78125 342.90625 374 298.59375 C 379.65625 288.65625 385.59375 275.5 389.53125 264.0625 L 390.96875 259.875 L 389.96875 257.34375 C 388.65625 253.96875 384.9375 246.8125 382.46875 242.875 C 373.125 227.875 356.53125 210.625 334.84375 193.28125 C 314.03125 176.65625 287.65625 159.3125 258.90625 143.375 C 248.5625 137.65625 248 137.375 248.21875 137.875 Z M 248.21875 137.875 "/>
<path style=" stroke:none;fill-rule:nonzero;fill:rgb(0%,0%,0%);fill-opacity:1;" d="M 5.34375 153.96875 C -1.125 180.875 -1.6875 210.75 3.78125 238.75 C 10.25 271.96875 25.59375 303.71875 47.625 329.46875 C 49.53125 331.6875 51.4375 333.90625 51.875 334.4375 C 53.3125 336.09375 59.125 336.71875 70.28125 336.46875 C 84.375 336.125 97.8125 333.65625 116.375 327.90625 C 147.375 318.34375 186.625 299.5625 225.71875 275.59375 L 230 272.96875 L 194 272.8125 L 157.96875 272.65625 L 152.96875 270.03125 C 80 231.71875 27 189.03125 8.375 153.53125 C 7.34375 151.59375 6.46875 150 6.40625 150 C 6.34375 150 5.875 151.78125 5.34375 153.96875 Z M 5.34375 153.96875 "/>
<path style=" stroke:none;fill-rule:nonzero;fill:rgb(0%,0%,0%);fill-opacity:1;" d="M 260 241.5 L 242.03125 272.59375 L 237.71875 275.375 C 217.6875 288.21875 192.65625 302.21875 171.4375 312.375 C 128.46875 333 92.71875 343.28125 65.6875 342.78125 C 62.5625 342.71875 60 342.71875 60.03125 342.8125 C 60.0625 343.09375 67.90625 350.1875 71.34375 353.09375 C 117.78125 392.125 178.59375 407.78125 238.65625 396.21875 L 243.71875 395.25 L 245.5625 392.84375 C 258.8125 375.6875 268.28125 348.125 273.59375 311.09375 C 275.875 295.03125 277.25 279.625 278.15625 259.375 C 278.5 251 278.5625 215.375 278.1875 212.3125 L 277.96875 210.375 Z M 260 241.5 "/>
</g>
</svg>
