<?xml version="1.0" encoding="UTF-8"?>
<svg xmlns="http://www.w3.org/2000/svg" xmlns:xlink="http://www.w3.org/1999/xlink" width="15px" height="15px" viewBox="0 0 15 15" version="1.1">
<g id="surface1">
<path style=" stroke:none;fill-rule:nonzero;fill:rgb(255%,255%,255%);fill-opacity:1;" d="M 14.976562 11.335938 L 14.296875 14.289062 C 14.199219 14.707031 13.832031 15 13.402344 15 C 6.011719 15 0 8.988281 0 1.597656 C 0 1.167969 0.292969 0.800781 0.710938 0.703125 L 3.664062 0.0234375 C 4.09375 -0.078125 4.53125 0.148438 4.710938 0.554688 L 6.074219 3.734375 C 6.234375 4.109375 6.125 4.542969 5.8125 4.800781 L 4.234375 6.066406 C 5.230469 8.09375 6.878906 9.742188 8.90625 10.742188 L 10.199219 9.164062 C 10.453125 8.847656 10.890625 8.738281 11.265625 8.902344 L 14.445312 10.265625 C 14.828125 10.464844 15.078125 10.910156 14.976562 11.335938 Z M 14.976562 11.335938 "/>
</g>
</svg>
