<?xml version="1.0" encoding="UTF-8"?>
<svg xmlns="http://www.w3.org/2000/svg" xmlns:xlink="http://www.w3.org/1999/xlink" width="26px" height="26px" viewBox="0 0 26 26" version="1.1">
<g id="surface1">
<path style=" stroke:none;fill-rule:nonzero;fill:rgb(0%,0%,0%);fill-opacity:1;" d="M 3.597656 8.03125 C 3.050781 7.863281 2.550781 7.5625 2.132812 7.148438 C 1.964844 6.976562 1.816406 6.796875 1.6875 6.601562 C 0.613281 8.492188 0 10.675781 0 13 C 0 15.324219 0.613281 17.507812 1.6875 19.398438 C 1.816406 19.203125 1.964844 19.023438 2.132812 18.851562 C 2.550781 18.4375 3.050781 18.136719 3.597656 17.96875 C 2.808594 16.484375 2.363281 14.792969 2.363281 13 C 2.363281 11.207031 2.808594 9.515625 3.597656 8.03125 Z M 3.597656 8.03125 "/>
<path style=" stroke:none;fill-rule:nonzero;fill:rgb(0%,0%,0%);fill-opacity:1;" d="M 24.3125 6.601562 C 24.183594 6.796875 24.035156 6.980469 23.867188 7.148438 C 23.449219 7.5625 22.949219 7.863281 22.402344 8.03125 C 23.191406 9.515625 23.636719 11.207031 23.636719 13 C 23.636719 14.792969 23.191406 16.484375 22.402344 17.96875 C 22.949219 18.136719 23.449219 18.4375 23.867188 18.851562 C 24.035156 19.019531 24.183594 19.203125 24.3125 19.398438 C 25.386719 17.507812 26 15.324219 26 13 C 26 10.675781 25.386719 8.492188 24.3125 6.601562 Z M 24.3125 6.601562 "/>
<path style=" stroke:none;fill-rule:nonzero;fill:rgb(0%,0%,0%);fill-opacity:1;" d="M 18.851562 23.867188 C 18.429688 23.441406 18.136719 22.9375 17.972656 22.402344 C 16.488281 23.1875 14.792969 23.636719 13 23.636719 C 11.207031 23.636719 9.511719 23.1875 8.027344 22.402344 C 7.863281 22.9375 7.570312 23.441406 7.148438 23.867188 C 6.980469 24.035156 6.796875 24.183594 6.601562 24.3125 C 8.492188 25.386719 10.675781 26 13 26 C 15.324219 26 17.507812 25.386719 19.398438 24.3125 C 19.203125 24.183594 19.019531 24.035156 18.851562 23.867188 Z M 18.851562 23.867188 "/>
<path style=" stroke:none;fill-rule:nonzero;fill:rgb(0%,0%,0%);fill-opacity:1;" d="M 13 0 C 10.675781 0 8.492188 0.613281 6.601562 1.6875 C 6.796875 1.816406 6.980469 1.964844 7.148438 2.132812 C 7.570312 2.558594 7.863281 3.0625 8.027344 3.597656 C 9.511719 2.8125 11.207031 2.363281 13 2.363281 C 14.792969 2.363281 16.488281 2.8125 17.972656 3.597656 C 18.136719 3.0625 18.429688 2.558594 18.851562 2.132812 C 19.019531 1.964844 19.203125 1.816406 19.398438 1.6875 C 17.507812 0.613281 15.324219 0 13 0 Z M 13 0 "/>
<path style=" stroke:none;fill-rule:nonzero;fill:rgb(0%,0%,0%);fill-opacity:1;" d="M 22.195312 20.523438 C 21.964844 20.292969 21.660156 20.175781 21.359375 20.175781 C 21.054688 20.175781 20.753906 20.292969 20.523438 20.523438 C 20.0625 20.984375 20.0625 21.734375 20.523438 22.195312 C 20.753906 22.425781 21.054688 22.539062 21.359375 22.539062 C 21.660156 22.539062 21.964844 22.425781 22.195312 22.195312 C 22.65625 21.734375 22.65625 20.984375 22.195312 20.523438 Z M 22.195312 20.523438 "/>
<path style=" stroke:none;fill-rule:nonzero;fill:rgb(0%,0%,0%);fill-opacity:1;" d="M 5.476562 3.804688 C 5.246094 3.574219 4.945312 3.460938 4.640625 3.460938 C 4.339844 3.460938 4.035156 3.574219 3.804688 3.804688 C 3.34375 4.265625 3.34375 5.015625 3.804688 5.476562 C 4.035156 5.707031 4.339844 5.824219 4.640625 5.824219 C 4.945312 5.824219 5.246094 5.707031 5.476562 5.476562 C 5.9375 5.015625 5.9375 4.265625 5.476562 3.804688 Z M 5.476562 3.804688 "/>
<path style=" stroke:none;fill-rule:nonzero;fill:rgb(0%,0%,0%);fill-opacity:1;" d="M 22.195312 3.804688 C 21.964844 3.574219 21.660156 3.460938 21.359375 3.460938 C 21.054688 3.460938 20.753906 3.574219 20.523438 3.804688 C 20.0625 4.265625 20.0625 5.015625 20.523438 5.476562 C 20.753906 5.707031 21.054688 5.824219 21.359375 5.824219 C 21.660156 5.824219 21.964844 5.707031 22.195312 5.476562 C 22.65625 5.015625 22.65625 4.265625 22.195312 3.804688 Z M 22.195312 3.804688 "/>
<path style=" stroke:none;fill-rule:nonzero;fill:rgb(0%,0%,0%);fill-opacity:1;" d="M 5.476562 20.523438 C 5.246094 20.292969 4.945312 20.175781 4.640625 20.175781 C 4.339844 20.175781 4.035156 20.292969 3.804688 20.523438 C 3.34375 20.984375 3.34375 21.734375 3.804688 22.195312 C 4.035156 22.425781 4.339844 22.539062 4.640625 22.539062 C 4.945312 22.539062 5.246094 22.425781 5.476562 22.195312 C 5.9375 21.734375 5.9375 20.984375 5.476562 20.523438 Z M 5.476562 20.523438 "/>
<path style=" stroke:none;fill-rule:nonzero;fill:rgb(0%,0%,0%);fill-opacity:1;" d="M 13 4.726562 C 8.429688 4.726562 4.726562 8.429688 4.726562 13 C 4.726562 17.570312 8.429688 21.273438 13 21.273438 C 17.570312 21.273438 21.273438 17.570312 21.273438 13 C 21.273438 8.429688 17.570312 4.726562 13 4.726562 Z M 18.789062 14.183594 L 15.363281 14.183594 L 15.363281 16.546875 L 17.722656 16.546875 C 16.644531 17.980469 14.929688 18.910156 13 18.910156 C 10.144531 18.910156 7.757812 16.875 7.210938 14.183594 L 10.636719 14.183594 L 10.636719 11.816406 L 7.210938 11.816406 C 7.757812 9.125 10.144531 7.089844 13 7.089844 C 14.929688 7.089844 16.644531 8.019531 17.722656 9.453125 L 13.789062 9.453125 L 13.789062 11.816406 L 18.789062 11.816406 C 18.867188 12.199219 18.910156 12.59375 18.910156 13 C 18.910156 13.40625 18.867188 13.800781 18.789062 14.183594 Z M 18.789062 14.183594 "/>
</g>
</svg>
