<svg 
 width="23px" height="20px">
<path fill-rule="evenodd"  fill="rgb(41, 40, 45)"
 d="M16.893,0.1 C14.469,0.1 12.934,1.423 12.73,2.618 C11.850,2.928 11.660,3.239 11.501,3.532 C11.341,3.239 11.151,2.928 10.928,2.618 C10.67,1.423 8.532,0.1 6.108,0.1 C4.384,0.1 2.810,0.696 1.675,1.963 C0.592,3.172 0.3,4.791 0.3,6.521 C0.3,8.405 0.743,10.156 2.348,12.34 C3.783,13.713 5.846,15.443 8.236,17.446 C9.126,18.193 10.47,18.965 11.27,19.809 L11.57,19.834 C11.184,19.944 11.342,19.998 11.501,19.998 C11.659,19.998 11.817,19.944 11.945,19.834 L11.974,19.809 C12.954,18.965 13.875,18.193 14.766,17.446 C17.155,15.443 19.219,13.713 20.653,12.34 C22.258,10.156 23.5,8.405 23.5,6.521 C23.5,4.791 22.409,3.172 21.326,1.963 C20.192,0.696 18.617,0.1 16.893,0.1 ZM13.891,16.437 C13.124,17.80 12.334,17.742 11.501,18.455 C10.668,17.742 9.878,17.80 9.110,16.437 C4.434,12.516 1.344,9.926 1.344,6.521 C1.344,5.114 1.821,3.806 2.686,2.840 C3.561,1.863 4.777,1.325 6.108,1.325 C7.956,1.325 9.151,2.444 9.828,3.385 C10.435,4.227 10.752,5.78 10.860,5.403 C10.950,5.677 11.209,5.861 11.501,5.861 C11.792,5.861 12.51,5.677 12.142,5.403 C12.250,5.78 12.566,4.227 13.173,3.385 C13.850,2.444 15.45,1.325 16.893,1.325 C18.225,1.325 19.440,1.863 20.315,2.840 C21.181,3.806 21.657,5.114 21.657,6.521 C21.657,9.926 18.568,12.516 13.891,16.437 Z"/>
</svg>